<?xml version="1.0" standalone="no"?>
<!DOCTYPE svg PUBLIC "-//W3C//DTD SVG 20010904//EN"
 "http://www.w3.org/TR/2001/REC-SVG-20010904/DTD/svg10.dtd">
<svg version="1.0" xmlns="http://www.w3.org/2000/svg"
 width="450.000000pt" height="450.000000pt" viewBox="0 0 450.000000 450.000000"
 preserveAspectRatio="xMidYMid meet">
<metadata>
Created by potrace 1.16, written by Peter Selinger 2001-2019
</metadata>
<g transform="translate(0.000000,450.000000) scale(0.100000,-0.100000)"
fill="#000000" stroke="none">
<path d="M751 3879 c-11 -12 -27 -41 -34 -64 -8 -23 -31 -63 -50 -88 -19 -25
-41 -63 -47 -84 -7 -21 -27 -54 -45 -73 -49 -53 -57 -74 -50 -133 l7 -52 -47
-35 c-60 -45 -68 -60 -73 -145 -12 -178 -9 -201 22 -234 23 -24 39 -31 67 -31
20 0 58 -10 85 -21 41 -19 60 -21 133 -16 47 3 105 1 128 -5 36 -9 49 -7 86
11 24 12 46 21 50 21 17 0 87 -384 87 -484 1 -121 19 -240 54 -341 24 -72 36
-126 41 -195 7 -104 27 -188 55 -235 10 -16 21 -57 24 -90 4 -33 18 -143 32
-244 13 -101 27 -236 30 -300 l6 -116 -52 -69 c-44 -61 -51 -75 -48 -110 3
-35 7 -41 28 -44 14 -2 29 -8 35 -13 5 -5 22 -9 39 -9 16 0 44 -5 61 -11 20
-7 53 -9 88 -5 88 11 83 -44 74 736 -2 234 -8 440 -12 459 -7 32 -6 34 16 25
13 -4 78 -8 144 -9 66 0 125 -4 132 -8 15 -10 91 -239 108 -332 8 -41 19 -148
25 -238 6 -89 15 -176 21 -193 7 -23 3 -63 -15 -165 -53 -287 -53 -300 4 -332
26 -14 46 -17 89 -13 31 3 62 5 69 6 22 0 13 30 -13 40 -22 8 -25 16 -25 54 0
82 -40 71 -48 -13 -2 -28 -8 -51 -12 -51 -15 0 -16 135 -2 235 9 66 11 126 7
175 -5 41 -7 127 -6 191 4 215 -49 483 -130 656 -31 65 -118 153 -151 153 -25
0 -23 -8 17 -64 19 -27 34 -51 32 -52 -1 -1 -22 2 -47 6 -25 5 -67 9 -95 10
-61 1 -143 33 -224 89 -33 22 -65 41 -70 41 -42 0 4 -71 80 -122 46 -31 49
-35 44 -68 -2 -19 -6 -233 -7 -475 -2 -389 -1 -448 15 -508 20 -79 21 -98 6
-150 -11 -40 -20 -44 -59 -24 -21 11 -24 18 -21 56 3 54 -15 52 -44 -5 -11
-21 -21 -41 -22 -43 -1 -2 -9 -1 -17 2 -12 5 -13 12 -5 37 8 22 8 34 0 43 -8
10 -4 32 15 83 22 59 26 85 26 184 0 145 -27 378 -53 467 -50 165 -68 242 -68
293 -2 142 -20 220 -78 343 l-56 118 13 104 c7 57 10 123 6 147 l-7 43 30 -35
c38 -46 96 -79 112 -63 9 9 -2 27 -45 74 -31 34 -56 66 -56 70 0 5 -13 15 -30
24 -23 12 -30 23 -30 44 0 43 -38 181 -60 218 -11 19 -20 36 -20 38 0 1 16 12
36 24 19 12 32 26 29 31 -10 16 -153 2 -270 -26 -157 -38 -212 -31 -284 35
-39 35 -42 36 -59 19 -9 -9 -12 -4 -12 25 0 31 3 37 21 37 31 0 76 36 104 84
33 56 32 69 -8 107 l-34 32 44 44 c44 43 54 81 21 75 -24 -4 -33 34 -14 63 9
13 25 41 37 61 39 70 108 142 152 158 23 9 78 18 122 20 73 4 81 7 103 33 12
15 25 40 29 56 3 15 7 27 10 27 12 0 74 -37 120 -72 45 -34 52 -44 49 -69 -1
-16 -6 -32 -9 -36 -4 -3 -7 -19 -7 -35 0 -21 5 -28 20 -28 15 0 21 -9 26 -40
8 -48 25 -51 51 -10 l20 31 54 -53 c241 -235 360 -331 509 -412 163 -89 203
-104 305 -122 90 -15 115 -15 250 -3 83 8 240 14 350 14 197 0 201 0 258 -27
32 -15 104 -61 161 -103 57 -41 106 -75 110 -75 3 0 6 9 6 21 0 31 -144 170
-210 202 -101 50 -181 60 -404 52 -110 -3 -268 -15 -350 -26 -83 -10 -160 -19
-171 -19 -11 0 -72 29 -135 65 -68 38 -132 67 -158 71 -36 5 -57 19 -121 78
-242 222 -348 315 -396 346 -38 25 -54 42 -54 58 -3 91 -159 222 -267 222 -38
0 -42 -3 -58 -37 -31 -69 -47 -83 -86 -75 -29 6 -40 17 -63 60 -32 59 -61 68
-96 31z"/>
<path d="M1239 3364 c-5 -16 -17 -62 -25 -104 -7 -41 -25 -97 -39 -123 -39
-75 -17 -91 40 -29 45 48 67 120 63 208 -3 74 -21 95 -39 48z"/>
<path d="M1711 3080 c-20 -39 -79 -99 -89 -92 -4 3 -16 -15 -43 -65 -6 -12 -9
-29 -6 -37 5 -13 16 -9 59 22 29 20 70 54 91 74 35 34 38 41 35 84 -2 26 -8
49 -14 51 -6 2 -21 -15 -33 -37z"/>
<path d="M1325 3081 c-3 -6 1 -38 10 -73 8 -35 19 -115 24 -178 10 -127 22
-170 47 -170 15 0 16 16 12 158 -4 119 -9 167 -23 197 -27 62 -55 89 -70 66z"/>
<path d="M3325 2820 c-7 -11 7 -35 85 -156 50 -77 72 -132 119 -297 17 -59 37
-118 45 -130 8 -12 30 -103 51 -202 38 -187 74 -299 106 -326 22 -20 82 -98
98 -127 6 -12 17 -54 25 -94 21 -111 49 -179 124 -307 37 -64 74 -132 82 -151
32 -82 55 -75 47 15 -7 70 -19 101 -63 165 -45 65 -60 97 -109 235 -24 68 -49
132 -54 142 -5 10 -19 38 -31 63 -12 25 -41 66 -65 92 -43 46 -44 50 -65 173
-26 155 -43 212 -85 295 -23 43 -39 95 -49 155 -30 179 -81 291 -186 408 -52
58 -64 65 -75 47z"/>
<path d="M2821 2341 c-20 -13 -6 -28 31 -34 18 -3 59 -15 91 -27 l58 -22 -39
-33 c-48 -42 -97 -132 -117 -216 -17 -76 -20 -244 -4 -320 7 -30 11 -75 10
-102 -2 -59 43 -170 68 -165 12 3 15 13 13 43 -3 39 -3 39 13 18 26 -37 5 -83
-65 -138 -44 -34 -179 -207 -210 -269 -54 -107 -30 -147 32 -53 38 57 120 157
205 250 63 69 78 97 87 159 6 41 2 58 -30 130 -61 138 -67 169 -61 298 5 126
25 202 81 320 l34 70 38 -26 c58 -39 100 -80 164 -164 51 -66 127 -150 332
-365 43 -45 60 -57 69 -48 18 18 -53 126 -156 233 -51 52 -118 129 -150 170
-174 222 -286 300 -429 300 -28 0 -57 -4 -65 -9z"/>
<path d="M2745 2281 c-27 -10 -99 -49 -160 -86 -60 -38 -132 -78 -160 -90
-142 -62 -195 -89 -195 -101 0 -19 23 -18 115 6 43 11 79 20 80 20 1 0 5 -31
7 -68 7 -93 41 -166 166 -352 57 -85 108 -164 113 -177 26 -68 -173 -349 -261
-368 -87 -19 -144 -69 -138 -120 2 -21 12 -30 43 -41 22 -8 51 -11 65 -8 14 4
56 8 93 9 103 3 121 37 27 50 -41 6 -49 10 -40 21 13 15 5 34 -14 34 -19 0
-46 -34 -46 -58 0 -23 -14 -29 -25 -11 -4 5 1 19 10 29 9 10 15 26 13 36 -2
15 5 20 37 24 118 18 224 142 267 312 29 119 27 125 -155 422 -65 106 -107
210 -107 265 0 21 7 31 28 40 53 24 312 205 312 218 0 17 -14 16 -75 -6z"/>
<path d="M2126 2173 c4 -26 13 -66 20 -88 19 -55 17 -167 -3 -245 -36 -137
-12 -741 35 -896 43 -141 54 -26 27 269 -8 86 -15 277 -15 423 -1 223 1 273
16 316 10 31 15 68 12 97 -6 58 -57 165 -80 169 -16 3 -17 -3 -12 -45z"/>
<path d="M3635 1609 c4 -19 11 -53 15 -77 4 -23 21 -61 37 -85 34 -46 87 -149
111 -211 8 -24 18 -92 21 -161 6 -115 7 -120 29 -123 12 -2 22 -8 22 -13 0
-16 70 -10 77 7 4 12 8 11 17 -8 16 -31 61 -36 78 -9 7 12 18 21 25 21 18 0
16 9 -9 58 -14 25 -30 42 -40 42 -21 0 -22 -8 -8 -46 7 -17 7 -31 1 -37 -5 -5
-12 -1 -16 12 -3 12 -10 21 -15 21 -4 0 -13 14 -19 30 -9 27 -14 30 -43 27
l-33 -4 0 71 c0 42 -7 93 -18 126 -24 71 -91 203 -125 248 -15 19 -38 58 -52
86 -31 62 -68 79 -55 25z"/>
<path d="M2205 827 c-3 -7 -1 -33 3 -58 10 -50 1 -79 -29 -97 -18 -11 -19 -9
-19 34 0 38 -3 45 -17 42 -26 -5 -32 -105 -7 -115 10 -4 19 -2 21 3 2 6 17 9
33 6 21 -3 35 3 54 21 32 32 34 82 6 137 -21 41 -37 50 -45 27z"/>
</g>
</svg>
