<?xml version="1.0" standalone="no"?>
<!DOCTYPE svg PUBLIC "-//W3C//DTD SVG 20010904//EN"
 "http://www.w3.org/TR/2001/REC-SVG-20010904/DTD/svg10.dtd">
<svg version="1.0" xmlns="http://www.w3.org/2000/svg"
 width="900.000000pt" height="977.000000pt" viewBox="0 0 900.000000 977.000000"
 preserveAspectRatio="xMidYMid meet">
<metadata>
Created by potrace 1.16, written by Peter Selinger 2001-2019
</metadata>
<g transform="translate(0.000000,977.000000) scale(0.100000,-0.100000)"
fill="#000000" stroke="none">
<path d="M2695 9739 c-75 -90 -92 -172 -105 -499 -5 -140 -12 -318 -16 -395
-4 -84 -2 -176 5 -230 6 -49 15 -173 21 -274 15 -267 43 -378 112 -442 29 -27
31 -32 17 -42 -15 -12 -34 -146 -31 -222 3 -83 22 -272 37 -370 9 -60 20 -171
24 -245 7 -147 12 -161 73 -228 45 -50 88 -134 88 -175 0 -22 -7 -31 -30 -41
-17 -7 -27 -15 -23 -19 10 -11 -61 -81 -173 -167 -161 -124 -181 -156 -225
-347 -16 -67 -40 -149 -53 -180 -45 -108 -43 -203 7 -368 27 -88 43 -205 52
-390 l6 -120 -73 -64 c-40 -35 -136 -131 -213 -212 -77 -82 -169 -175 -205
-206 -68 -58 -213 -239 -207 -257 2 -5 -40 -32 -92 -58 -139 -69 -159 -88
-176 -173 -17 -82 -19 -182 -5 -221 6 -15 25 -43 42 -62 52 -60 90 -172 58
-172 -5 0 -10 12 -10 26 0 16 -5 24 -12 22 -18 -6 -22 -101 -8 -166 7 -34 23
-66 43 -89 30 -34 31 -40 28 -104 -2 -62 0 -72 28 -112 24 -35 39 -46 67 -52
29 -5 59 -27 130 -96 51 -49 97 -89 104 -89 6 0 32 -19 58 -43 129 -118 207
-162 280 -156 21 2 67 -7 107 -21 68 -24 77 -24 390 -25 176 0 360 3 409 8
l89 7 -7 -64 c-9 -89 -44 -255 -61 -291 -24 -51 -54 -166 -71 -265 -18 -112
-23 -129 -76 -279 -30 -84 -39 -118 -31 -130 7 -11 5 -27 -8 -56 -9 -22 -20
-65 -24 -95 -4 -30 -14 -68 -22 -83 -8 -16 -22 -59 -32 -95 -10 -37 -34 -110
-54 -162 -20 -53 -39 -120 -43 -150 -4 -30 -22 -100 -39 -155 -43 -131 -98
-455 -78 -455 5 0 51 34 103 76 112 90 148 110 163 95 15 -15 47 -14 98 4 93
33 244 36 312 6 30 -13 70 -21 102 -21 87 0 248 -36 290 -65 21 -14 43 -25 50
-25 7 0 69 -24 137 -54 67 -30 148 -64 178 -75 31 -12 68 -35 83 -51 20 -20
54 -37 120 -57 106 -33 117 -46 118 -137 1 -30 7 -63 14 -72 11 -16 20 -7 82
77 86 115 172 199 206 199 17 0 42 20 87 70 34 39 88 87 119 107 31 20 83 60
116 90 33 30 87 69 120 85 33 17 97 57 142 89 45 33 110 73 145 91 90 44 122
71 210 177 43 52 91 102 108 112 16 10 47 45 67 76 20 32 66 90 102 129 36 39
90 99 119 132 89 103 253 213 390 263 41 15 42 30 0 22 l-31 -6 39 72 c21 40
53 89 70 109 33 40 87 147 130 257 14 39 34 77 44 85 9 8 27 44 40 80 33 97
78 176 131 232 26 28 50 61 53 74 3 13 9 35 12 49 5 19 2 25 -9 25 -11 0 -18
14 -23 47 -11 71 3 305 25 428 38 217 46 331 45 665 0 259 -4 348 -18 440 -25
166 -85 392 -151 570 -31 85 -63 178 -71 205 -22 79 -27 201 -14 320 7 61 12
133 11 162 -1 28 3 54 8 58 6 3 11 19 11 34 0 15 17 56 39 92 21 35 42 75 46
89 12 38 69 124 160 240 94 119 155 243 185 376 10 45 32 121 49 168 56 159
62 196 62 379 0 94 4 179 10 188 8 16 19 92 39 264 5 44 18 123 29 175 29 132
37 379 21 606 -11 157 -18 202 -61 369 -62 242 -116 392 -169 467 -23 33 -38
64 -34 71 4 6 4 9 -1 5 -4 -4 -20 1 -34 11 -67 45 -147 83 -190 88 -71 8 -152
-13 -216 -56 -124 -84 -306 -232 -412 -335 -154 -148 -235 -257 -304 -406 -12
-25 -31 -58 -44 -75 -12 -16 -26 -41 -30 -55 -4 -13 -50 -110 -102 -215 l-94
-190 -122 -125 c-67 -69 -148 -156 -180 -195 -75 -90 -145 -148 -166 -138 -9
4 -105 8 -213 9 -157 1 -204 5 -231 17 -18 9 -73 27 -123 40 -49 14 -134 41
-189 61 -70 25 -117 36 -157 36 -91 0 -139 41 -285 245 -31 44 -82 112 -113
150 -141 175 -198 254 -209 288 -7 20 -20 46 -30 59 -9 13 -48 93 -85 178 -38
85 -86 184 -108 220 -21 36 -44 83 -50 105 -6 22 -17 47 -25 56 -7 8 -13 21
-13 27 0 6 -9 17 -20 25 -11 8 -46 73 -79 145 -90 198 -158 291 -380 515
l-156 157 -71 0 c-69 0 -74 -2 -99 -31z m154 -23 c25 -13 61 -53 86 -95 6 -11
2 -10 -16 2 -13 9 -31 17 -41 17 -28 0 -21 -28 11 -48 15 -9 50 -46 77 -82 28
-36 89 -112 137 -169 48 -57 99 -129 114 -160 15 -31 43 -77 63 -103 19 -26
49 -73 65 -105 17 -32 38 -69 48 -82 9 -13 17 -30 17 -38 0 -8 27 -70 60 -139
33 -68 65 -144 71 -167 7 -23 52 -141 100 -262 48 -121 97 -256 109 -300 12
-44 44 -154 72 -245 43 -143 49 -172 43 -221 -4 -44 -2 -59 10 -69 25 -21 35
3 35 90 0 64 -7 98 -45 210 -25 74 -55 171 -66 214 -20 77 -99 299 -158 441
-16 39 -39 101 -51 139 -11 38 -45 123 -75 190 -70 154 -41 118 52 -67 146
-289 272 -602 339 -841 14 -50 42 -138 62 -195 31 -90 39 -105 64 -115 15 -6
28 -16 28 -23 0 -19 18 -25 40 -13 15 8 19 17 14 35 -5 21 -2 24 28 27 31 3
33 5 32 39 -2 72 -10 87 -54 93 -22 3 -58 9 -81 12 -22 3 -37 10 -32 15 4 4
26 4 48 -1 60 -14 95 -12 95 5 0 20 -28 33 -91 41 -76 10 -108 24 -49 23 64
-2 70 -1 70 15 0 16 -13 21 -77 31 -60 9 -70 30 -11 22 28 -4 49 -2 56 5 16
16 33 -1 113 -114 38 -54 85 -110 104 -125 39 -31 37 -43 -8 -43 -36 0 -84
-28 -70 -40 9 -9 104 4 166 23 55 15 148 -3 294 -57 65 -24 139 -49 163 -56
25 -7 53 -19 62 -27 15 -14 24 -14 63 -3 48 13 312 10 348 -5 27 -11 3 -32
-56 -50 -98 -29 -148 -83 -132 -142 9 -35 9 -61 0 -95 -9 -34 13 -38 40 -8 14
16 16 29 11 73 -8 65 -2 83 35 102 64 33 76 12 58 -105 -9 -62 -9 -83 1 -95 7
-9 9 -26 5 -45 -9 -42 19 -41 57 3 30 33 28 22 -4 -25 -23 -34 -25 -81 -1 -76
9 2 21 17 26 33 5 17 22 47 39 68 28 36 30 57 4 57 -16 0 -50 62 -44 81 3 9
11 3 22 -18 9 -18 20 -33 25 -33 5 0 7 33 5 73 -4 71 -4 72 11 39 9 -18 21
-32 28 -29 13 4 13 16 1 57 -7 23 -6 24 10 11 24 -20 29 -10 21 43 -5 32 -13
47 -26 51 -10 4 -19 11 -19 17 0 6 29 44 65 84 36 40 94 106 128 148 34 41
100 109 145 152 l82 76 150 297 c82 163 169 325 192 360 24 36 48 72 53 80 33
51 142 177 215 249 119 117 327 280 413 324 94 49 132 49 225 3 143 -72 216
-189 296 -470 79 -281 107 -545 88 -833 -28 -409 -105 -649 -304 -952 -61 -94
-97 -174 -98 -217 0 -14 17 -38 46 -65 41 -38 45 -45 39 -75 -3 -18 -19 -61
-35 -96 -40 -83 -39 -138 2 -122 41 16 117 222 118 319 0 23 6 43 15 50 12 9
13 18 5 46 -14 49 -13 59 9 53 29 -7 37 40 12 75 -24 34 -36 82 -20 82 6 0 13
-9 16 -20 3 -11 12 -20 21 -20 12 0 14 11 9 63 -5 57 -3 67 23 112 l28 49 7
-38 c4 -20 5 -101 3 -179 -4 -120 -9 -154 -32 -220 -14 -43 -37 -126 -51 -185
-15 -62 -43 -143 -66 -192 -23 -47 -50 -103 -61 -126 -11 -22 -55 -73 -98
-112 -62 -57 -85 -72 -109 -72 -28 0 -36 -8 -76 -70 -31 -49 -55 -74 -78 -84
-56 -23 -83 -69 -121 -206 -10 -37 -42 -93 -99 -175 -46 -66 -87 -132 -90
-146 -4 -15 -23 -46 -42 -69 -19 -23 -38 -54 -41 -69 -9 -44 -22 -70 -64 -125
-25 -33 -40 -63 -40 -82 0 -18 -19 -57 -50 -104 -52 -78 -58 -95 -37 -103 9
-3 7 -13 -7 -41 -15 -28 -17 -39 -8 -48 9 -9 15 -7 27 8 20 27 20 2 -2 -54
-12 -32 -13 -46 -5 -54 8 -8 13 -6 17 8 21 64 50 133 52 122 2 -7 -6 -40 -16
-73 -12 -37 -15 -64 -10 -71 5 -6 9 -22 8 -35 -1 -29 0 -124 1 -161 0 -15 -15
-79 -35 -141 -19 -62 -35 -125 -35 -139 0 -15 -13 -55 -30 -90 -16 -34 -30
-71 -30 -80 0 -9 -4 -20 -10 -23 -5 -3 -10 -15 -10 -26 0 -38 -118 -221 -192
-298 -85 -90 -236 -205 -369 -283 -114 -67 -152 -84 -249 -108 -83 -21 -229
-80 -230 -94 0 -4 17 -5 38 -1 20 4 56 9 80 11 48 5 184 48 216 69 12 8 70 35
131 61 143 61 181 86 334 222 134 119 187 181 219 255 12 26 30 60 42 74 11
14 20 36 20 50 0 13 11 41 25 62 15 22 38 88 56 161 16 67 37 136 45 153 11
19 14 41 9 64 -4 21 -2 40 6 49 6 8 9 23 6 35 -3 11 -1 48 4 81 7 43 7 64 -2
74 -9 11 -9 25 0 60 7 25 9 55 5 66 -3 11 0 40 7 65 10 36 10 46 0 53 -10 5
-8 17 8 47 25 49 16 64 -16 26 l-24 -28 21 40 c38 73 90 150 112 166 22 17 16
44 -8 35 -22 -9 -2 23 40 62 28 26 35 40 34 66 -1 19 8 49 20 68 12 20 22 45
22 56 0 11 25 56 56 99 31 43 76 120 102 172 45 92 162 276 162 253 0 -6 -9
-26 -20 -45 -12 -20 -20 -49 -19 -68 2 -21 -9 -57 -28 -94 -22 -42 -28 -66
-22 -77 6 -11 -6 -39 -47 -104 -31 -49 -67 -111 -81 -138 -38 -74 -5 -51 45
33 24 40 46 70 49 68 2 -3 -32 -64 -76 -137 -45 -72 -81 -142 -81 -155 0 -13
-17 -45 -38 -72 -60 -77 -72 -100 -72 -138 0 -21 -10 -51 -26 -75 -16 -24 -24
-46 -20 -57 5 -13 18 0 56 58 28 41 50 71 50 66 0 -4 -23 -53 -51 -108 -31
-62 -48 -108 -44 -118 6 -13 11 -10 32 16 22 28 27 31 46 20 12 -7 25 -16 28
-21 11 -14 29 3 29 27 0 12 5 29 11 37 8 11 9 3 4 -31 -6 -44 -5 -47 21 -53
14 -4 28 -5 31 -2 6 5 33 136 33 158 0 28 -19 21 -26 -9 -3 -16 -9 -37 -14
-48 -7 -16 -8 -14 -5 10 2 17 6 47 9 67 6 45 -10 60 -24 24 -5 -14 -14 -26
-20 -26 -6 0 -6 9 0 26 6 14 10 40 10 57 0 18 14 55 30 82 16 28 30 62 30 76
0 14 20 57 45 95 24 38 47 84 51 101 15 79 43 -14 54 -179 6 -101 11 -123 34
-163 30 -51 106 -284 162 -495 82 -314 78 -801 -12 -1380 -29 -180 -28 -244 4
-345 21 -67 14 -103 -25 -130 -33 -23 -80 -105 -132 -227 -68 -161 -119 -258
-240 -464 l-106 -181 -77 -42 c-108 -58 -230 -153 -275 -212 -21 -28 -62 -78
-92 -112 -30 -34 -69 -83 -88 -109 -19 -26 -43 -50 -54 -53 -11 -4 -62 -59
-113 -123 -93 -116 -141 -162 -170 -162 -8 0 -26 -10 -39 -22 -14 -13 -46 -36
-73 -52 -46 -27 -106 -66 -279 -179 -39 -25 -91 -63 -115 -85 -25 -21 -62 -47
-82 -57 -21 -9 -65 -47 -97 -84 -39 -44 -79 -77 -117 -96 -43 -22 -77 -52
-142 -127 -56 -64 -88 -94 -93 -86 -4 6 -13 39 -19 73 l-11 60 -42 1 c-39 0
-91 15 -127 35 -8 5 -45 27 -82 50 -37 22 -100 53 -140 68 -40 16 -115 47
-166 70 -51 22 -99 41 -106 41 -8 0 -19 14 -26 30 -12 29 -15 30 -54 25 -23
-4 -54 -1 -71 5 -16 7 -78 16 -137 21 -113 9 -178 28 -178 52 0 13 -5 13 -37
1 -21 -7 -63 -14 -93 -14 -30 0 -75 -6 -100 -11 -25 -6 -61 -13 -80 -16 l-35
-6 25 21 c37 31 8 26 -51 -9 -28 -16 -79 -44 -113 -61 -33 -16 -73 -42 -88
-56 l-28 -26 0 35 c0 19 14 86 30 149 17 63 43 174 59 245 31 139 42 173 88
275 16 36 35 97 42 135 7 39 19 79 25 90 7 11 27 63 45 115 55 158 166 366
293 546 24 34 71 101 104 150 62 89 92 122 129 142 11 6 100 91 197 189 98 98
178 175 178 171 0 -11 -159 -191 -299 -338 -73 -77 -129 -140 -124 -140 8 0
164 139 428 383 66 61 111 100 99 87 -76 -91 -168 -195 -228 -257 -38 -40 -67
-75 -64 -78 3 -4 80 67 171 157 155 154 161 158 103 83 -34 -44 -97 -115 -141
-157 -81 -79 -90 -102 -19 -48 100 75 100 75 83 55 -53 -65 -19 -60 66 10 73
60 94 71 52 27 -23 -23 -37 -62 -23 -62 2 0 39 33 82 74 202 189 230 205 369
207 80 1 208 -51 311 -128 33 -25 83 -30 102 -11 20 20 14 27 -30 34 -25 4
-51 17 -64 31 -12 12 -27 23 -35 23 -7 0 -22 8 -33 18 -12 10 -61 34 -111 53
l-90 34 -255 0 c-255 0 -255 0 -342 29 -49 16 -88 32 -88 35 0 8 113 61 129
61 19 0 85 37 104 58 17 19 22 20 58 7 37 -13 41 -13 61 7 16 16 22 17 28 7 7
-10 18 -7 54 12 25 13 47 26 47 29 1 3 3 14 4 25 1 12 8 31 14 44 11 20 10 23
-8 28 -15 4 -21 13 -21 34 0 31 14 39 24 14 3 -8 13 -15 22 -15 17 0 16 25 -2
87 -8 29 24 45 38 20 5 -10 16 -17 24 -17 13 0 14 8 9 38 -5 32 -3 38 17 47
34 15 30 49 -6 53 -26 3 -28 1 -24 -22 5 -22 2 -26 -13 -21 -15 5 -19 1 -19
-18 0 -19 -6 -26 -31 -31 -19 -3 -33 -13 -36 -25 -3 -11 -16 -27 -29 -36 -14
-9 -29 -27 -34 -41 -5 -13 -16 -24 -23 -24 -7 0 -23 -14 -35 -30 -13 -17 -29
-30 -37 -30 -7 0 -16 -9 -20 -20 -4 -12 -21 -24 -45 -30 -24 -6 -41 -18 -45
-30 -4 -12 -15 -20 -29 -20 -13 0 -31 -9 -41 -20 -9 -10 -34 -24 -54 -31 -20
-6 -49 -19 -66 -28 -79 -45 -265 -102 -410 -126 -61 -10 -92 -20 -98 -31 -8
-13 -11 -14 -18 -3 -7 11 -14 11 -40 2 -22 -8 -36 -9 -44 -3 -8 7 -21 3 -39
-11 -26 -20 -28 -20 -40 -4 -14 19 -36 13 -36 -11 0 -23 -18 -16 -22 8 -2 17
-13 24 -42 30 -22 5 -48 16 -59 25 -25 24 -132 29 -244 12 -48 -8 -126 -14
-173 -15 -122 -2 -151 -8 -170 -31 -11 -15 -21 -18 -31 -12 -8 4 -31 6 -51 2
-22 -3 -44 -1 -51 5 -8 7 -47 19 -87 27 -41 9 -83 23 -94 33 -85 72 -232 209
-235 217 -6 21 27 29 69 15 37 -12 41 -16 38 -44 -4 -40 28 -50 38 -12 3 14
13 26 21 26 11 0 13 -5 8 -18 -15 -34 -17 -60 -6 -67 17 -10 41 14 41 41 0 13
5 24 10 24 6 0 10 -22 10 -49 0 -59 16 -76 26 -26 4 25 11 35 25 35 14 0 19
-7 19 -28 0 -20 9 -35 30 -50 16 -12 34 -22 40 -22 5 0 10 -5 10 -11 0 -24 20
4 26 37 l7 36 86 -7 c47 -4 136 -16 196 -27 61 -11 173 -24 250 -29 77 -4 166
-15 198 -23 73 -20 213 -20 296 -1 100 24 195 80 291 170 104 98 148 132 199
150 60 21 101 44 160 88 29 23 63 46 75 52 11 6 27 28 34 50 11 35 11 41 -4
52 -13 10 -23 8 -52 -8 -20 -10 -44 -19 -53 -19 -9 0 -24 -11 -32 -24 -9 -13
-28 -27 -43 -30 -14 -4 -47 -28 -73 -54 -25 -26 -94 -84 -152 -129 -58 -45
-120 -99 -137 -121 -41 -51 -77 -67 -193 -88 -103 -18 -218 -21 -439 -9 -247
13 -404 31 -530 63 -36 9 -74 15 -85 14 -12 -2 -39 9 -60 24 -22 16 -51 29
-65 30 -14 1 -28 3 -32 3 -18 2 -91 77 -108 110 -18 37 -35 101 -27 101 3 0
20 -25 38 -56 45 -80 115 -152 131 -136 10 10 4 21 -26 50 -71 68 -126 178
-98 196 4 2 25 -30 46 -71 43 -83 135 -191 154 -179 8 5 -6 28 -41 69 -29 34
-65 85 -81 112 -16 28 -36 58 -44 68 -15 16 -14 21 3 54 23 42 47 58 100 68
21 4 56 15 77 26 48 24 140 114 163 159 10 19 40 64 67 100 34 45 48 72 46 90
-4 38 -30 31 -52 -15 -11 -21 -73 -94 -137 -160 -115 -118 -119 -121 -177
-133 -33 -7 -70 -20 -82 -30 -22 -18 -23 -17 -80 37 -32 31 -66 62 -76 68 -34
23 35 4 102 -28 83 -40 112 -38 187 13 78 52 217 186 217 209 0 9 7 33 15 52
8 20 15 64 15 98 0 59 -2 64 -47 117 -35 41 -46 62 -45 83 2 22 -2 29 -16 29
-10 0 -23 -5 -30 -12 -15 -15 -16 -3 -2 22 13 25 -3 35 -29 18 -33 -20 -37 0
-6 32 21 21 26 33 18 41 -7 7 -20 2 -44 -19 -38 -32 -79 -56 -79 -46 0 4 23
31 51 61 27 29 47 57 44 63 -10 17 -126 -81 -132 -112 -5 -28 -13 -34 -26 -22
-9 9 9 42 55 96 21 27 36 52 33 58 -9 15 -53 -18 -86 -67 -32 -47 -49 -55 -49
-23 0 29 -18 25 -51 -11 -16 -18 -33 -28 -37 -24 -4 4 5 17 20 29 16 12 28 30
28 40 0 15 -5 17 -32 12 -18 -4 -44 -6 -58 -5 -64 5 -129 3 -136 -4 -4 -4 -2
-13 4 -19 7 -7 12 -21 12 -32 0 -19 0 -19 -23 1 -12 11 -28 22 -35 24 -20 7
105 153 231 271 63 59 143 142 178 183 56 67 318 301 370 331 11 6 30 21 44
34 13 12 28 19 33 16 5 -3 17 3 27 14 10 11 24 20 32 20 7 0 13 5 13 10 0 6
26 27 58 47 77 50 409 382 460 462 68 104 109 244 81 277 -9 11 -8 18 7 35 14
16 16 24 7 38 -9 14 -9 21 0 30 8 8 8 14 0 22 -15 15 3 57 25 61 8 2 20 21 27
43 8 28 16 39 28 37 24 -4 34 23 57 159 11 68 25 128 32 134 8 7 9 3 4 -15 -3
-14 -9 -56 -13 -94 -5 -57 -4 -68 8 -64 8 3 17 27 22 59 12 79 20 91 26 39 8
-60 24 -53 32 12 4 29 12 66 18 81 13 34 15 97 2 97 -5 0 -12 -16 -15 -35 -9
-48 -25 -45 -19 4 5 38 -12 67 -23 38 -3 -9 -14 -12 -30 -9 -20 4 -24 0 -24
-19 0 -31 -15 -53 -28 -45 -11 7 -24 -30 -36 -106 -4 -21 -17 -50 -29 -65 -14
-17 -39 -87 -66 -183 -34 -125 -43 -176 -46 -263 -6 -133 -35 -228 -81 -262
-11 -7 -19 -17 -19 -22 0 -4 -8 -17 -17 -28 -9 -11 -29 -35 -45 -54 -51 -63
-334 -320 -355 -323 -12 -2 -29 -16 -38 -33 -9 -16 -24 -32 -34 -33 -15 -3
-13 4 9 48 15 29 33 84 41 123 19 87 28 106 63 118 16 6 34 22 42 37 7 15 21
39 32 54 30 45 42 89 27 98 -11 7 -11 14 0 40 13 31 12 33 -30 69 -37 32 -42
41 -36 64 6 27 -9 135 -23 167 -4 8 -3 35 1 60 23 132 30 204 19 208 -6 2 -11
12 -11 22 0 28 -17 33 -34 9 -14 -21 -14 -21 -18 7 -4 36 -22 34 -26 -3 l-4
-27 -18 24 c-24 31 -46 15 -36 -25 5 -21 11 -26 27 -22 17 5 20 2 15 -17 -3
-12 1 -46 9 -75 10 -37 11 -60 4 -72 -7 -13 -5 -27 6 -48 8 -17 11 -32 6 -35
-5 -3 -51 -5 -103 -4 -59 1 -102 -3 -117 -11 -22 -12 -23 -17 -18 -82 15 -178
125 -261 285 -213 13 4 22 2 22 -4 0 -6 -10 -12 -22 -14 -29 -4 -35 -34 -12
-59 22 -24 26 -105 5 -101 -48 10 -78 -34 -97 -140 -18 -104 -66 -191 -143
-257 l-58 -51 -6 48 c-19 145 -19 179 -4 203 21 32 67 218 56 225 -16 9 -27
-5 -33 -43 -15 -83 -37 -147 -47 -132 -14 22 -10 66 6 73 8 3 15 16 15 29 0
13 5 39 11 56 7 21 8 36 2 42 -16 16 -40 0 -51 -34 l-10 -32 -1 38 c-1 22 -10
50 -23 68 -20 27 -23 43 -22 123 0 80 4 102 33 169 17 43 43 128 56 189 14 61
36 130 49 152 32 55 105 123 340 316 23 19 64 59 91 88 27 30 65 62 85 72 19
10 57 41 83 68 42 43 46 50 33 62 -13 10 -20 9 -42 -6 -15 -11 -34 -23 -43
-29 -9 -5 -20 -16 -24 -22 -4 -7 -17 -13 -27 -13 -11 0 -20 -7 -20 -15 0 -8
-7 -15 -16 -15 -9 0 -18 -9 -21 -20 -6 -23 -26 -22 -31 2 -2 9 18 31 46 53 27
20 59 54 71 75 12 21 56 70 98 108 74 67 86 92 42 92 -11 0 -35 -15 -55 -32
-79 -74 -114 -109 -114 -116 0 -4 -21 -20 -46 -36 -50 -32 -72 -71 -55 -97 5
-9 7 -19 4 -22 -5 -6 -118 147 -143 192 -8 15 -13 75 -15 165 -2 102 -11 192
-34 325 -32 189 -41 370 -21 401 9 13 12 12 25 -4 8 -11 15 -28 15 -38 0 -10
11 -23 24 -27 28 -11 62 -100 47 -128 -5 -10 -19 -39 -31 -65 l-23 -47 27 -36
c15 -19 31 -35 37 -35 15 0 10 36 -6 50 -9 7 -13 15 -10 18 3 3 16 -5 30 -18
30 -28 36 -24 42 34 4 32 14 52 34 72 l28 27 -21 29 c-15 21 -24 26 -31 19 -6
-6 -14 -11 -18 -11 -11 0 -29 59 -29 94 0 24 -10 42 -41 71 -33 33 -39 45 -35
67 5 23 0 30 -37 50 -59 32 -97 112 -109 227 -5 47 -16 136 -26 196 -14 94
-17 176 -14 560 2 508 14 651 58 742 42 87 96 113 163 79z m330 -342 c32 -39
74 -99 95 -132 43 -72 108 -212 98 -212 -10 0 -79 106 -133 204 -24 44 -71
109 -104 146 -56 62 -125 153 -134 175 -7 20 122 -111 178 -181z m-1081 -5345
c-43 -58 -43 -58 -31 -70 8 -8 22 1 54 33 29 30 37 35 26 16 -9 -15 -17 -37
-17 -48 0 -19 2 -20 35 -6 35 15 45 10 24 -11 -16 -16 -2 -33 25 -33 16 0 32
14 53 48 38 58 78 96 92 88 6 -4 -14 -36 -49 -78 -41 -49 -57 -75 -50 -82 7
-7 14 -6 22 2 7 7 20 12 30 12 15 0 17 -5 12 -25 -6 -23 -4 -24 30 -23 20 1
39 -1 42 -5 12 -12 -8 -27 -36 -27 -17 0 -33 -7 -39 -17 -10 -16 -14 -14 -46
20 -61 64 -205 104 -390 108 -71 1 -134 6 -140 10 -25 18 -117 47 -138 42 -17
-4 -19 -3 -11 6 6 7 43 17 82 21 61 8 77 7 116 -10 37 -17 49 -18 71 -8 21 9
32 8 62 -6 32 -15 37 -15 53 -1 9 8 23 15 32 15 8 0 32 13 54 30 50 38 61 38
32 -1z m-359 -680 c30 -17 80 -57 112 -88 53 -51 59 -61 59 -99 0 -29 6 -47
21 -61 l21 -20 -58 5 c-107 10 -121 19 -154 87 -15 34 -31 82 -35 107 -4 25
-14 57 -21 73 -18 34 -11 34 55 -4z"/>
<path d="M2955 9330 c-4 -6 1 -23 11 -38 30 -44 54 -91 54 -105 0 -7 8 -29 19
-50 15 -30 16 -38 5 -48 -9 -7 -11 -17 -4 -28 5 -10 5 -23 -1 -32 -16 -25 -10
-35 36 -57 39 -19 45 -26 45 -52 0 -33 23 -60 69 -85 17 -8 31 -23 31 -32 0
-9 12 -29 27 -45 22 -23 26 -36 27 -92 1 -62 2 -65 33 -80 30 -14 32 -17 30
-69 -1 -39 -6 -53 -14 -50 -23 9 -14 -23 20 -67 57 -76 60 -80 50 -80 -5 0
-20 11 -33 25 -25 27 -50 33 -50 12 0 -15 45 -59 78 -76 12 -7 32 -9 42 -6 21
7 27 39 9 51 -6 4 -9 19 -5 37 3 16 1 36 -5 43 -8 10 -8 23 1 49 11 32 10 39
-8 58 -26 29 -41 58 -59 120 -20 67 -45 117 -72 141 -12 11 -21 27 -21 37 0
10 -12 27 -27 39 -53 42 -89 121 -84 188 2 22 -3 34 -14 38 -10 4 -13 13 -10
25 4 12 -6 32 -33 61 -21 24 -44 62 -50 85 -8 27 -24 51 -46 68 -37 28 -42 29
-51 15z"/>
<path d="M6688 8423 c-7 -16 -22 -37 -35 -48 -18 -15 -25 -35 -30 -84 -5 -49
-10 -65 -24 -68 -9 -3 -27 -28 -39 -56 -11 -29 -25 -60 -30 -69 -11 -20 -13
-117 -4 -142 10 -25 37 -20 31 6 -7 25 5 50 44 95 15 17 30 46 34 63 4 17 15
36 26 43 12 8 19 23 19 44 0 17 6 62 14 100 25 125 27 143 16 143 -6 0 -16
-12 -22 -27z"/>
<path d="M3334 8255 c-3 -8 6 -35 20 -60 l27 -45 -25 -33 c-14 -19 -23 -36
-20 -40 3 -3 -4 -10 -15 -17 -12 -6 -21 -17 -21 -25 0 -7 -6 -15 -12 -18 -10
-3 -10 -9 -1 -24 8 -14 8 -24 1 -31 -14 -14 20 -90 45 -98 29 -9 54 38 56 105
1 28 11 44 50 81 30 28 51 58 55 77 7 30 5 33 -30 48 -21 8 -53 33 -71 55 -37
43 -50 49 -59 25z"/>
<path d="M6443 7978 c-40 -50 -56 -136 -33 -179 9 -16 7 -19 -10 -19 -24 0
-27 -26 -5 -50 14 -15 14 -19 -1 -31 -13 -11 -18 -11 -21 -1 -6 17 -33 15 -33
-2 0 -8 14 -26 32 -41 29 -25 33 -34 36 -94 3 -36 9 -69 15 -73 8 -4 5 -14 -8
-28 -19 -21 -19 -21 3 -26 21 -6 21 -6 2 -33 -32 -43 -45 -201 -17 -201 6 0
35 25 64 56 68 72 82 63 17 -11 -77 -88 -104 -134 -104 -177 0 -33 4 -40 28
-49 19 -8 32 -7 45 1 15 9 23 8 38 -6 10 -9 19 -23 19 -31 0 -7 6 -13 13 -13
10 0 24 21 43 66 3 6 -5 14 -17 17 -21 6 -21 7 -6 30 12 19 14 37 7 88 -9 75
-4 89 44 149 36 46 47 90 22 90 -7 0 -19 -7 -26 -15 -16 -19 -92 -55 -102 -49
-4 3 1 24 11 47 17 39 36 89 48 130 7 24 -22 22 -59 -4 -36 -26 -49 -17 -21
14 31 34 35 45 23 67 -9 18 -7 27 14 55 16 20 22 36 16 40 -5 3 -10 14 -10 24
0 10 -7 24 -15 31 -8 7 -14 20 -13 29 2 11 -3 15 -19 13 -13 -2 -23 -1 -23 2
0 2 14 27 31 55 30 48 31 51 17 92 -15 46 -29 57 -45 37z"/>
<path d="M5903 7927 c-12 -12 -32 -44 -46 -72 -14 -27 -44 -68 -66 -90 -23
-21 -41 -44 -41 -50 0 -6 -13 -24 -30 -40 -23 -22 -27 -32 -19 -42 15 -17 29
-17 29 1 0 7 13 19 28 25 16 7 36 25 46 41 9 17 33 42 52 58 41 32 71 84 80
140 7 48 -6 59 -33 29z"/>
<path d="M3220 7836 c0 -8 14 -24 30 -36 17 -12 30 -26 30 -33 0 -10 27 -75
54 -129 9 -17 11 -29 4 -36 -6 -6 -7 -19 -4 -30 9 -26 45 -72 57 -72 16 0 10
26 -11 45 -11 10 -20 28 -20 39 1 19 3 18 28 -10 56 -65 102 -69 102 -9 0 30
-11 49 -61 108 -34 40 -66 82 -71 94 -6 12 -23 25 -38 28 -15 3 -38 17 -50 31
-26 27 -50 32 -50 10z"/>
<path d="M5738 7314 c-26 -13 -52 -33 -58 -44 -10 -19 -9 -20 14 -14 20 5 26
2 26 -10 0 -9 5 -16 10 -16 6 0 10 -7 10 -15 0 -10 10 -15 29 -15 16 0 31 -6
34 -12 3 -10 8 -10 21 1 19 16 35 6 18 -11 -17 -17 -15 -45 3 -52 8 -3 15 -12
15 -21 0 -8 3 -15 8 -15 14 0 40 -59 35 -80 -4 -15 0 -23 13 -26 20 -5 62 -80
51 -90 -3 -4 0 -13 8 -21 8 -8 15 -30 15 -49 0 -20 6 -37 14 -40 8 -3 16 -18
20 -34 4 -22 16 -34 43 -48 31 -14 38 -23 38 -45 -1 -17 6 -29 17 -33 12 -3
18 -15 18 -35 0 -26 3 -29 28 -27 44 3 55 -9 49 -58 -2 -25 -1 -46 2 -49 4 -2
27 1 51 7 44 12 120 77 120 104 0 19 -19 18 -42 -3 -15 -14 -18 -14 -18 -1 0
20 40 37 73 31 19 -4 41 4 78 27 41 27 52 31 60 19 13 -21 11 -56 -6 -73 -8
-8 -15 -19 -15 -25 0 -14 27 -14 35 -1 3 5 15 0 26 -11 11 -11 27 -18 35 -15
12 5 14 1 9 -17 -13 -42 -68 -125 -80 -120 -8 3 -20 -19 -34 -58 -27 -80 -26
-89 4 -89 18 0 25 -5 25 -19 0 -43 37 -7 78 75 41 83 55 155 32 169 -14 8 9
53 31 60 10 3 21 15 24 25 3 11 18 28 32 39 22 18 24 25 18 61 -8 47 -44 94
-89 116 -17 9 -46 30 -64 47 -30 29 -40 32 -120 38 -84 7 -101 3 -102 -24 0
-15 70 -37 119 -37 55 0 101 -14 101 -30 0 -6 -17 -18 -37 -26 -21 -8 -72 -31
-113 -51 -85 -41 -120 -48 -120 -21 0 9 5 20 10 23 6 3 10 13 10 20 0 11 -11
14 -45 11 -24 -3 -47 0 -50 5 -4 5 -18 9 -32 9 -23 0 -25 3 -20 33 3 17 8 40
12 49 5 13 0 19 -18 23 -15 4 -25 14 -24 23 1 27 -13 72 -23 72 -5 0 -12 -9
-15 -20 -7 -21 -16 -25 -28 -13 -4 3 3 17 15 30 21 22 21 25 6 34 -9 5 -14 17
-11 28 3 10 0 28 -7 40 -9 17 -8 22 5 27 8 3 15 12 15 20 0 17 -5 17 -32 3
-17 -9 -19 -8 -13 10 4 13 -2 33 -19 58 -14 21 -26 46 -26 55 0 12 -8 18 -24
18 -14 0 -28 5 -31 10 -3 6 -17 10 -31 10 -29 0 -31 20 -4 45 20 18 27 45 13
45 -5 0 -23 -9 -42 -21 -39 -23 -52 -18 -26 11 10 11 16 23 13 26 -8 8 -68
-24 -68 -36 0 -21 -20 -9 -26 15 -7 30 -14 30 -76 -1z"/>
<path d="M4702 7305 c-17 -14 -36 -25 -43 -25 -23 0 -84 -25 -92 -37 -4 -7
-13 -13 -19 -13 -5 0 -23 -11 -40 -25 -16 -14 -38 -25 -48 -25 -9 0 -23 -7
-30 -16 -20 -23 -76 -44 -172 -65 -48 -10 -107 -29 -130 -41 -24 -13 -54 -25
-67 -28 -20 -4 -24 -12 -27 -50 -8 -84 -42 -136 -234 -345 -15 -17 -30 -40
-34 -53 -4 -12 -15 -22 -26 -22 -14 0 -21 -10 -27 -41 -8 -42 -30 -52 -25 -10
6 46 -23 15 -35 -39 -6 -29 -16 -57 -22 -63 -22 -22 -10 -28 20 -10 17 10 56
56 87 102 31 45 66 90 79 99 13 8 33 32 44 54 11 21 23 38 28 38 5 0 20 17 34
38 13 21 43 59 64 84 28 32 42 59 47 89 4 24 14 54 22 66 14 23 108 73 136 73
8 0 27 9 42 21 14 11 47 22 73 25 26 3 49 6 51 8 2 3 17 0 33 -6 28 -10 29
-12 29 -78 l0 -68 -56 -66 c-42 -50 -66 -68 -95 -76 -30 -8 -43 -19 -58 -49
-11 -20 -26 -43 -34 -50 -8 -6 -13 -20 -10 -29 2 -10 -7 -28 -21 -41 -14 -14
-26 -35 -26 -47 0 -13 -4 -25 -9 -29 -5 -3 -15 -22 -21 -43 -13 -42 -37 -99
-69 -159 -5 -10 -26 -58 -48 -107 -25 -60 -52 -104 -80 -133 -24 -24 -43 -48
-43 -53 0 -16 -163 -220 -180 -225 -10 -3 -26 -21 -36 -40 -19 -35 -22 -37
-59 -39 -11 -1 -19 -7 -17 -14 1 -8 -9 -53 -23 -100 -45 -147 -122 -271 -271
-434 -46 -51 -84 -99 -84 -107 0 -8 -7 -23 -16 -33 -21 -22 -8 -40 48 -69 21
-11 45 -30 54 -44 9 -13 25 -27 37 -31 35 -11 139 -123 132 -142 -4 -14 3 -20
27 -27 29 -9 33 -14 32 -42 -2 -27 2 -32 25 -35 23 -3 26 -7 24 -34 -3 -29 1
-34 37 -48 24 -10 51 -32 71 -58 17 -24 37 -47 45 -51 8 -4 14 -15 14 -23 0
-8 18 -34 40 -56 22 -23 40 -48 40 -55 0 -7 7 -13 16 -13 8 0 12 5 9 11 -4 6
-8 24 -9 39 -1 16 -4 31 -7 33 -2 2 -16 11 -31 20 -15 10 -37 35 -47 56 -22
43 -93 121 -110 121 -6 0 -11 7 -11 15 0 22 -41 75 -57 75 -9 0 -11 8 -7 24 5
20 -1 29 -32 50 -33 22 -35 26 -16 26 13 0 22 6 22 15 0 10 -10 15 -29 15 -43
0 -141 100 -133 137 5 21 -40 43 -74 37 -38 -7 -74 10 -74 34 0 10 18 36 41
57 62 60 236 282 262 334 12 25 25 48 30 49 4 2 7 14 7 27 0 12 7 42 15 65 8
23 15 53 15 65 0 15 24 46 71 92 85 81 151 162 249 301 56 80 88 142 144 275
158 377 159 378 234 433 139 102 202 198 202 307 0 31 4 57 9 57 8 0 63 42
176 133 17 13 39 27 51 31 11 3 31 18 44 31 23 25 23 25 3 25 -12 0 -35 -11
-51 -25z"/>
<path d="M3975 7301 c8 -27 -31 -40 -49 -16 -9 13 -20 16 -44 10 -33 -7 -40
-23 -20 -43 18 -18 -12 -15 -36 3 -11 8 -27 15 -36 15 -19 0 -60 -52 -60 -75
0 -19 -5 -19 -41 2 -32 19 -34 19 -43 -20 -6 -24 -3 -29 26 -41 39 -17 56 -11
64 20 6 25 19 31 29 14 3 -5 16 -10 27 -10 25 0 108 47 108 60 0 6 13 10 29
10 19 0 35 8 44 20 12 17 19 19 41 10 33 -12 37 -12 56 0 24 15 -25 60 -67 60
-29 0 -33 -3 -28 -19z"/>
<path d="M5867 6701 c-31 -55 -35 -99 -11 -108 13 -5 15 -14 10 -46 -5 -28 -2
-44 8 -56 8 -9 16 -32 18 -51 3 -30 7 -35 31 -38 22 -3 27 -7 22 -20 -16 -38
-15 -49 3 -65 19 -17 20 -15 46 55 32 88 33 118 7 118 -11 0 -22 -6 -25 -12
-4 -7 -4 -2 0 12 3 14 8 35 11 48 3 14 -1 30 -11 41 -10 11 -20 41 -24 67 l-7
48 -23 -28 c-26 -34 -27 -31 -7 19 12 28 13 40 4 51 -18 22 -24 18 -52 -35z"/>
<path d="M6923 6698 c-6 -7 -20 -34 -32 -60 -12 -25 -36 -57 -54 -71 -59 -45
-88 -77 -81 -88 4 -7 17 0 35 17 16 15 31 25 34 22 3 -2 -29 -37 -70 -78 -55
-53 -74 -77 -70 -90 3 -10 1 -21 -5 -25 -16 -10 -12 -35 6 -35 9 0 29 -9 46
-21 25 -18 28 -26 22 -51 l-6 -30 43 23 c59 33 144 120 145 150 1 13 9 43 17
65 15 39 15 46 -3 97 -15 43 -18 69 -13 121 6 67 3 76 -14 54z"/>
<path d="M6072 6312 c-49 -49 -63 -112 -26 -112 13 0 14 -3 4 -15 -15 -18 -5
-35 20 -35 12 0 26 13 35 30 9 17 20 30 26 30 7 0 6 -9 -4 -23 -8 -12 -18 -41
-21 -63 -6 -34 -4 -43 9 -48 10 -3 15 -12 12 -21 -8 -20 104 -92 157 -100 23
-4 51 -16 63 -27 15 -14 29 -19 46 -14 16 4 27 1 30 -7 3 -9 22 -14 51 -14 25
-1 51 -5 58 -9 7 -5 21 -7 31 -6 9 2 17 -1 17 -7 0 -14 76 -34 100 -26 23 7
26 30 8 50 -31 35 -36 43 -35 61 2 13 -8 22 -31 29 -29 10 -31 13 -18 24 25
21 19 38 -16 44 -26 3 -45 -4 -90 -34 -55 -38 -86 -50 -73 -29 4 6 27 21 53
34 26 13 55 32 64 43 16 18 16 19 -12 32 -28 12 -35 10 -98 -25 -37 -20 -77
-44 -89 -52 -15 -9 -23 -10 -23 -3 0 6 24 26 53 45 57 37 87 66 68 66 -21 0
-80 -28 -125 -59 -25 -18 -47 -27 -51 -21 -3 5 14 21 37 36 24 15 46 32 50 38
15 24 -11 26 -55 5 -26 -13 -48 -21 -49 -18 -25 39 -58 114 -58 129 0 11 -4
20 -10 20 -5 0 -10 9 -10 20 0 31 -35 24 -61 -12 -27 -37 -38 -22 -13 17 23
36 5 56 -24 27z"/>
<path d="M4343 6155 c-17 -7 -34 -18 -38 -25 -4 -6 -18 -15 -31 -20 -20 -8
-24 -17 -24 -49 0 -34 -3 -38 -20 -34 -17 4 -20 0 -20 -23 0 -68 26 -92 69
-65 21 13 46 -3 61 -39 17 -41 31 -38 28 8 -2 27 1 37 12 37 11 0 15 -12 15
-50 0 -27 4 -61 9 -75 7 -20 6 -23 -5 -12 -7 6 -25 12 -39 12 -14 0 -35 7 -46
15 -24 18 -44 19 -44 2 0 -20 52 -63 71 -59 9 1 22 -4 29 -13 7 -9 28 -15 51
-15 22 0 39 -4 39 -10 0 -22 -2 -25 -14 -23 -6 2 -19 -9 -28 -25 -17 -27 -98
-111 -98 -100 0 3 14 22 30 43 48 61 33 130 -21 96 -15 -8 -24 -8 -39 1 -16
10 -22 10 -32 0 -18 -19 27 -55 60 -49 17 3 22 0 20 -12 -4 -17 -29 -18 -80
-6 -38 10 -36 -10 3 -31 21 -10 28 -19 21 -26 -7 -7 -18 -4 -36 7 -50 33 -52
9 -4 -37 50 -47 50 -68 0 -68 -13 0 -33 -5 -45 -12 -12 -7 -31 -12 -42 -12
-12 -1 -32 -20 -52 -51 -33 -49 -53 -67 -53 -46 0 18 -18 13 -40 -11 -23 -25
-28 -70 -6 -62 7 3 19 17 26 32 21 45 22 8 1 -41 -20 -46 -41 -62 -41 -32 0 8
-7 15 -15 15 -8 0 -15 -9 -15 -19 0 -10 -7 -22 -16 -25 -8 -3 -12 -10 -9 -16
4 -7 13 -6 26 1 17 9 28 6 60 -15 44 -30 59 -32 59 -11 0 8 9 19 21 25 11 7
27 27 35 46 9 22 21 34 34 34 22 0 28 34 9 45 -24 16 1 27 69 31 40 3 92 12
115 20 27 10 43 11 45 4 2 -5 16 -10 30 -10 15 0 44 -5 66 -11 26 -7 42 -7 48
-1 7 7 17 7 29 -1 14 -9 22 -7 39 8 20 18 22 19 31 2 10 -16 12 -16 35 2 13
10 33 17 43 14 13 -3 20 2 24 18 6 22 7 22 25 6 23 -21 36 -21 51 -3 7 8 24
17 39 21 15 3 37 15 48 27 21 19 23 19 71 2 27 -10 57 -15 66 -11 25 10 21 37
-5 37 -36 0 -87 36 -164 115 -82 84 -117 100 -219 99 -58 0 -79 -5 -119 -27
-27 -15 -51 -26 -53 -24 -2 3 -5 19 -6 38 -1 19 -6 37 -12 41 -16 12 3 21 45
21 29 0 40 4 40 15 0 9 -7 13 -18 10 -10 -3 -26 0 -36 7 -16 12 -16 14 6 29
30 22 37 20 48 -9 11 -28 34 -35 26 -7 -4 12 3 27 19 42 14 13 25 35 25 48 0
23 -3 24 -35 19 -33 -5 -35 -4 -35 24 0 22 -5 29 -19 29 -15 0 -21 8 -23 35
-4 43 -25 35 -34 -14 -6 -27 -4 -33 15 -38 11 -3 21 -12 21 -21 0 -13 -3 -12
-20 3 -29 26 -54 4 -45 -42 6 -35 -4 -43 -24 -19 -8 10 -9 16 -1 21 5 3 10 18
10 33 0 22 17 68 57 160 10 23 -28 12 -52 -15 l-24 -28 -1 29 c0 16 7 38 17
48 9 10 13 21 10 25 -4 4 -14 -2 -22 -13 -15 -19 -15 -19 -33 2 -17 20 -21 20
-49 9z"/>
<path d="M3970 5110 c0 -5 -13 -10 -29 -10 -25 0 -29 -5 -33 -31 -8 -54 9 -74
75 -88 33 -7 62 -9 65 -6 3 3 -7 17 -23 30 -17 13 -27 27 -23 31 4 4 14 1 23
-6 11 -9 18 -10 28 -1 11 9 7 18 -23 51 -36 39 -60 51 -60 30z"/>
<path d="M4755 4990 c-7 -21 5 -49 29 -70 9 -7 16 -20 16 -29 0 -10 -19 5 -48
38 -48 54 -72 61 -72 20 0 -10 27 -52 61 -92 58 -69 90 -96 117 -97 19 0 14
34 -8 63 -19 24 -26 47 -14 47 3 0 17 -9 31 -20 31 -24 43 -25 43 -4 0 20 -58
91 -109 132 -37 30 -40 31 -46 12z"/>
<path d="M5035 4100 c-27 -54 -41 -65 -31 -25 10 39 -19 31 -39 -11 -14 -29
-19 -33 -31 -23 -8 6 -16 10 -17 8 -2 -2 -11 -17 -22 -34 -17 -27 -19 -28 -25
-10 -6 16 -16 3 -49 -64 -43 -85 -65 -105 -36 -33 9 23 15 49 13 59 -8 36 -98
-174 -98 -229 0 -15 29 -8 39 10 10 19 47 27 56 11 10 -16 35 -10 35 9 0 47
76 222 96 222 8 0 -5 -37 -42 -121 -44 -98 -44 -131 -3 -146 23 -9 31 -9 34 0
2 7 13 45 25 86 22 76 135 310 123 256 -3 -16 -24 -73 -46 -125 -21 -52 -46
-112 -55 -133 -9 -24 -12 -41 -6 -47 6 -6 30 42 63 128 30 75 66 159 80 185
26 47 26 48 7 63 -32 23 -44 17 -71 -36z"/>
<path d="M4672 3806 c-6 -13 -29 -34 -52 -47 -71 -40 -139 -189 -94 -206 21
-8 41 18 55 72 15 56 28 70 44 48 20 -27 42 -1 55 65 6 31 14 65 16 75 8 26
-11 21 -24 -7z"/>
</g>
</svg>
