<?xml version="1.0" standalone="no"?>
<!DOCTYPE svg PUBLIC "-//W3C//DTD SVG 20010904//EN"
 "http://www.w3.org/TR/2001/REC-SVG-20010904/DTD/svg10.dtd">
<svg version="1.0" xmlns="http://www.w3.org/2000/svg"
 width="612.000000pt" height="525.000000pt" viewBox="0 0 612.000000 525.000000"
 preserveAspectRatio="xMidYMid meet">

<g transform="translate(0.000000,525.000000) scale(0.100000,-0.100000)"
fill="#000000" stroke="none">
<path d="M2685 5170 c-95 -9 -202 -33 -296 -66 -81 -28 -98 -29 -204 -9 -113
22 -159 14 -291 -55 -61 -32 -161 -79 -222 -105 -61 -25 -137 -64 -169 -85
-81 -53 -204 -192 -243 -273 -21 -44 -48 -81 -80 -109 -26 -24 -57 -59 -68
-78 -25 -43 -37 -168 -23 -229 15 -67 -4 -139 -38 -148 -53 -12 -349 -181
-401 -228 -14 -12 -60 -36 -104 -54 -56 -22 -97 -47 -145 -91 -66 -58 -68 -61
-90 -142 -35 -137 -32 -156 51 -268 16 -22 21 -42 19 -73 -2 -33 4 -52 25 -82
17 -25 27 -51 25 -70 -1 -16 8 -120 20 -230 24 -214 36 -256 97 -327 16 -18
33 -41 38 -51 6 -9 45 -55 87 -102 77 -83 78 -85 64 -112 -18 -36 -37 -145
-36 -209 1 -83 29 -165 65 -189 43 -29 219 -60 257 -46 42 16 47 14 47 -19 0
-40 63 -103 139 -139 48 -22 71 -26 159 -28 l103 -2 22 -32 c12 -18 62 -60
112 -93 136 -93 163 -148 130 -266 -9 -36 -24 -87 -31 -115 -18 -66 -18 -226
1 -300 43 -167 171 -331 311 -397 64 -30 78 -33 204 -38 l135 -5 60 -41 c69
-46 150 -94 161 -94 4 0 -48 56 -115 125 -67 69 -139 152 -161 186 l-39 61 6
-64 c6 -71 -8 -98 -52 -98 -45 0 -199 87 -249 140 -114 122 -176 371 -176 703
0 73 4 137 8 143 4 7 33 17 65 24 54 12 76 25 64 36 -2 2 -44 11 -92 20 -48 8
-110 24 -138 35 -53 20 -147 82 -147 97 0 5 17 14 38 20 74 23 92 20 147 -28
40 -35 52 -40 96 -40 27 0 49 2 49 3 0 2 -17 22 -37 43 -21 22 -46 54 -55 72
-15 29 -22 32 -62 32 -25 0 -86 -12 -136 -26 -127 -37 -179 -32 -303 28 -53
26 -113 58 -133 72 -35 24 -36 24 -14 36 19 10 31 5 95 -38 83 -56 178 -87
246 -80 24 3 77 17 118 32 152 56 209 46 233 -41 11 -37 22 -53 48 -68 18 -11
63 -48 99 -83 49 -47 74 -64 103 -68 62 -10 71 -35 66 -178 -4 -108 -8 -133
-42 -231 -31 -88 -38 -125 -39 -185 0 -89 15 -150 46 -186 l23 -27 0 89 c-1
82 2 94 32 152 43 83 88 207 97 267 6 40 9 45 18 29 7 -13 7 -43 -1 -99 -24
-161 -7 -280 54 -380 19 -32 34 -61 34 -66 0 -11 97 -109 142 -143 35 -26 167
-80 175 -72 13 13 -26 50 -90 87 -94 55 -192 149 -227 220 -55 108 -61 147
-58 381 2 117 0 225 -5 241 -6 24 -5 27 16 27 45 0 152 43 185 74 42 38 114
130 136 173 21 42 20 77 -4 148 -30 87 -29 97 36 320 5 14 -6 9 -35 -20 -63
-60 -82 -122 -90 -290 -10 -199 -38 -251 -159 -290 -27 -9 -63 -15 -78 -13
-26 3 -29 7 -26 33 2 16 30 90 62 165 66 155 100 258 100 305 0 19 5 46 11 62
6 15 14 51 18 78 l6 50 20 -22 c26 -30 35 -29 35 5 0 73 -93 251 -218 417 -53
70 -122 145 -135 145 -13 0 59 -127 105 -184 53 -67 48 -83 -33 -122 -40 -19
-96 -60 -143 -104 -92 -85 -130 -104 -282 -136 -152 -32 -306 -34 -365 -4 -66
34 -94 13 -159 -118 -75 -152 -143 -203 -305 -228 -90 -13 -98 -13 -153 6
-101 35 -132 98 -113 233 13 97 40 160 91 212 48 50 80 111 88 171 4 26 12 49
19 51 6 2 23 -12 38 -31 25 -33 25 -36 11 -64 -28 -54 -48 -167 -52 -292 -4
-121 -5 -127 -34 -169 -17 -24 -30 -45 -28 -47 2 -2 18 5 36 16 38 23 70 85
105 200 31 102 56 130 121 137 51 6 96 -2 96 -18 0 -6 -13 -24 -30 -40 -19
-20 -37 -54 -51 -102 -11 -40 -32 -89 -45 -110 -23 -35 -23 -37 -4 -37 34 0
91 61 126 135 20 42 49 83 71 102 37 31 37 32 19 52 -11 12 -56 42 -100 67
-111 64 -149 96 -200 168 -51 71 -82 101 -113 110 -12 4 -32 22 -45 39 -12 18
-51 64 -87 102 -92 98 -163 207 -168 259 -7 59 21 82 123 103 82 16 177 58
206 89 36 41 68 128 68 187 0 42 4 59 15 63 8 4 15 10 15 15 0 18 -44 8 -90
-20 -41 -25 -51 -28 -65 -17 -14 10 -16 21 -11 49 6 31 11 37 32 37 13 0 36 7
49 16 20 13 29 14 59 3 27 -10 41 -10 60 -1 22 10 36 6 108 -28 52 -25 96 -40
120 -40 74 0 150 -57 187 -140 22 -51 70 -110 89 -110 18 0 5 38 -25 74 -32
38 -49 73 -57 117 -8 43 -17 52 -71 69 -22 7 -52 23 -67 36 -15 12 -54 28 -85
34 -95 18 -127 36 -149 83 -15 33 -31 48 -76 72 -56 29 -57 31 -52 65 9 55
-20 75 -110 75 -39 0 -89 -4 -111 -9 -38 -8 -36 -6 45 53 107 78 163 104 272
132 99 24 174 66 188 105 6 14 10 45 10 70 0 36 -5 48 -30 71 -22 19 -30 35
-30 60 0 45 18 50 89 24 68 -25 90 -26 97 -7 10 27 -24 73 -71 96 -28 14 -45
28 -45 40 0 10 19 46 42 81 34 51 43 73 46 120 l4 58 87 84 c84 81 91 85 183
115 52 17 144 55 204 85 129 65 173 78 270 80 80 2 107 -10 84 -38 -20 -24 11
-20 171 26 279 79 380 90 595 70 101 -10 135 -24 289 -120 50 -30 153 -87 230
-126 l139 -70 91 -116 c53 -67 190 -215 330 -355 224 -223 247 -243 339 -294
167 -92 214 -126 246 -176 39 -63 53 -108 91 -311 17 -95 35 -173 39 -173 15
0 22 57 21 183 0 70 3 127 8 127 4 0 50 -44 102 -97 81 -84 99 -109 128 -177
31 -75 33 -85 29 -181 -3 -89 -6 -107 -32 -155 -79 -147 -79 -148 -87 -259
-11 -145 -32 -207 -126 -356 -27 -44 -62 -111 -77 -150 -15 -38 -44 -110 -63
-160 -19 -49 -59 -126 -88 -170 -29 -44 -59 -93 -67 -110 -21 -42 -51 -135
-45 -141 2 -3 29 30 60 73 54 77 231 285 248 291 4 2 -24 -66 -63 -150 -83
-179 -150 -349 -142 -357 18 -18 142 185 268 437 100 200 158 290 255 395 83
89 90 114 70 231 -26 158 -6 275 69 393 45 71 66 67 129 -26 l40 -60 -4 -133
c-4 -123 -3 -140 22 -218 35 -113 42 -210 22 -281 -19 -63 -72 -131 -126 -158
-66 -35 -134 -121 -167 -212 -19 -54 -34 -129 -25 -129 3 0 22 30 41 68 27 54
67 100 202 235 201 202 233 252 247 402 5 50 16 109 25 133 8 24 18 65 22 92
4 28 11 50 16 50 15 0 150 -141 206 -215 29 -38 61 -89 73 -112 41 -84 69 -77
49 11 -26 117 -57 157 -239 314 -182 156 -370 348 -444 452 -103 145 -185 237
-321 358 -142 127 -166 150 -271 261 -81 86 -235 190 -400 272 -123 60 -131
67 -390 345 -82 88 -170 189 -195 224 -47 65 -113 122 -189 160 -24 12 -77 50
-117 84 -92 78 -209 132 -394 180 -150 38 -246 48 -365 36z m-1508 -826 c18
-80 16 -122 -7 -129 -11 -4 -28 -21 -38 -38 l-17 -32 -3 73 c-3 82 21 186 41
179 7 -2 17 -26 24 -53z m58 -244 c3 -5 -18 -23 -47 -40 -75 -43 -83 -40 -48
18 16 26 26 32 54 32 19 0 37 -4 41 -10z m-588 -511 c48 -18 99 -58 132 -104
17 -24 31 -46 31 -49 0 -3 -20 8 -44 25 -73 49 -115 62 -197 63 -77 1 -129
-15 -129 -40 0 -7 9 -16 20 -19 13 -4 20 -15 20 -30 0 -32 -14 -39 -34 -16 -9
10 -34 26 -56 36 -22 10 -40 23 -40 30 0 19 62 73 110 94 50 23 141 28 187 10z
m-111 -205 c-9 -36 11 -102 40 -131 22 -22 30 -24 74 -18 36 5 62 2 93 -10 40
-15 46 -15 88 0 83 31 83 31 70 6 -17 -31 -48 -47 -116 -62 -33 -7 -96 -30
-139 -51 -43 -20 -83 -35 -87 -32 -5 3 -9 31 -9 62 0 31 -10 89 -21 129 -22
72 -20 151 2 137 6 -3 8 -17 5 -30z m287 -20 c26 -14 47 -28 47 -32 0 -17 -25
-32 -53 -32 -34 0 -87 48 -87 80 0 25 16 22 93 -16z m-414 -20 c23 -39 26 -66
11 -94 -16 -29 -42 -14 -35 20 4 18 1 31 -10 40 -23 19 -19 70 6 70 4 0 16
-16 28 -36z m94 -191 c3 -56 2 -95 -4 -99 -14 -9 -40 16 -56 54 -13 30 -12 38
7 76 11 23 20 51 20 62 0 28 13 39 21 17 3 -10 9 -60 12 -110z m1783 -903 c-8
-58 1 -81 50 -126 27 -26 34 -39 34 -70 0 -70 -27 -169 -65 -240 -37 -69 -37
-69 -31 -162 7 -110 -1 -123 -83 -141 -65 -14 -90 -14 -129 0 -33 11 -41 29
-56 120 -8 46 -34 69 -84 76 -38 5 -41 8 -51 49 -15 57 -63 95 -131 102 -28 2
-50 8 -50 12 0 14 58 32 82 25 36 -12 116 -66 198 -134 107 -89 128 -109 135
-131 7 -23 44 -35 78 -26 32 8 47 44 58 144 5 46 13 92 18 101 11 20 41 153
41 179 0 11 -7 23 -16 26 -42 16 -85 -49 -105 -159 -7 -37 -19 -74 -27 -81
-18 -18 -52 -18 -80 2 -28 20 -28 41 1 49 48 14 67 30 86 76 28 63 26 104 -5
162 -14 27 -24 55 -22 62 3 15 137 134 152 135 5 0 6 -23 2 -50z m-816 -151
c0 -22 -32 -105 -48 -124 -9 -11 -36 -35 -59 -53 -24 -19 -43 -41 -43 -51 0
-9 -6 -26 -14 -36 -12 -16 -17 -17 -44 -6 l-31 13 59 59 c32 32 71 82 86 111
14 29 35 63 47 76 21 23 47 30 47 11z m109 -106 c-4 -21 -16 -43 -25 -50 -20
-15 -54 -17 -54 -5 0 12 70 92 80 92 4 0 4 -17 -1 -37z"/>
<path d="M2351 4984 c-157 -42 -318 -149 -378 -251 -28 -48 -93 -252 -93 -292
0 -24 3 -23 49 27 49 54 57 58 80 43 19 -12 6 -44 -53 -131 -57 -82 -116 -231
-116 -293 0 -20 3 -37 6 -37 4 0 35 27 71 60 68 64 93 74 93 37 0 -32 -55 -94
-90 -102 -37 -8 -67 -45 -76 -93 -5 -27 1 -61 25 -134 18 -54 36 -100 42 -103
13 -9 11 56 -3 110 -11 40 -10 49 10 91 12 25 28 44 34 42 7 -3 27 -32 46 -66
26 -48 49 -73 96 -106 69 -49 106 -70 112 -63 9 9 -50 104 -87 139 -37 36 -49
58 -31 58 5 0 30 -7 56 -16 74 -26 174 -16 227 21 45 32 66 64 34 51 -10 -3
-58 -13 -106 -22 -80 -13 -93 -13 -143 1 -54 16 -76 36 -76 68 0 10 15 7 56
-15 67 -33 152 -38 226 -11 44 15 48 15 73 -1 32 -21 64 -89 109 -231 42 -135
67 -386 45 -453 -7 -21 -13 -92 -13 -162 -1 -151 9 -182 95 -301 32 -45 59
-86 59 -91 0 -4 5 -8 10 -8 21 0 10 125 -21 230 -28 94 -32 122 -35 265 -6
237 -18 317 -67 458 -69 198 -185 370 -292 433 -74 43 -201 84 -260 84 -30 0
-55 4 -55 9 0 4 17 20 38 33 33 22 49 25 139 27 95 1 103 0 131 -24 17 -14 64
-76 105 -139 106 -160 117 -163 70 -18 -34 102 -77 157 -166 207 -34 19 -67
43 -74 54 -7 11 -33 32 -58 46 -25 15 -42 31 -39 36 9 16 76 10 118 -11 71
-34 188 -135 228 -197 21 -31 38 -53 38 -47 0 37 -37 122 -73 167 -24 28 -51
72 -60 97 -25 63 -71 94 -203 135 -121 38 -164 64 -164 98 0 13 26 48 66 90
53 54 87 77 168 117 55 27 119 60 141 74 36 23 38 25 15 25 -14 0 -50 -7 -79
-15z m-205 -835 c-8 -52 10 -83 58 -99 31 -10 41 -9 76 11 l40 23 23 -22 c26
-26 18 -35 -48 -53 -51 -14 -99 -6 -147 26 -40 27 -74 86 -62 108 15 26 38 47
52 47 11 0 13 -9 8 -41z m79 1 c7 -12 -12 -40 -26 -40 -5 0 -9 11 -9 25 0 25
23 35 35 15z"/>
<path d="M1990 4943 c-36 -19 -90 -55 -121 -79 -58 -45 -149 -139 -149 -155 0
-5 -32 -43 -70 -85 -92 -99 -104 -121 -84 -160 8 -16 28 -42 44 -57 28 -26 30
-34 30 -98 0 -86 18 -92 55 -19 30 60 31 80 5 155 -36 103 -29 128 60 220 32
33 64 73 71 89 8 17 56 62 111 103 87 65 127 107 116 118 -2 2 -33 -12 -68
-32z"/>
<path d="M2810 4803 c0 -26 6 -70 14 -98 13 -50 97 -224 134 -279 l20 -28 13
23 13 24 7 -25 c4 -14 8 -52 8 -85 2 -93 26 -184 65 -249 26 -44 36 -71 36
-102 0 -85 20 -143 76 -223 30 -42 71 -110 92 -151 l37 -75 -2 -180 c-1 -155
-5 -194 -27 -280 -33 -134 -73 -341 -88 -460 -9 -77 -9 -122 1 -219 16 -145
39 -226 83 -288 42 -59 63 -75 173 -132 106 -54 186 -73 245 -58 58 14 53 -4
-26 -89 -102 -111 -183 -241 -184 -294 0 -10 -27 -60 -60 -110 -32 -49 -66
-109 -74 -132 -22 -62 -28 -238 -11 -303 8 -29 17 -106 21 -170 5 -96 3 -131
-11 -191 -28 -113 -50 -155 -117 -225 -51 -54 -67 -64 -95 -64 -45 0 -50 18
-30 96 26 97 22 195 -13 309 -31 101 -37 164 -20 212 l10 28 -21 -25 c-35 -40
-70 -125 -76 -183 -3 -33 1 -81 11 -125 39 -170 11 -244 -117 -307 -68 -33
-82 -37 -158 -37 -46 0 -92 -2 -101 -5 -23 -6 -23 -35 1 -81 44 -85 122 -127
264 -144 212 -24 337 5 602 140 298 152 525 325 554 422 36 123 130 254 225
316 82 53 51 55 -53 3 -104 -53 -191 -131 -191 -172 0 -61 -159 -188 -371
-297 -53 -27 -99 -50 -102 -50 -3 0 6 27 20 60 28 69 53 237 53 357 0 106 14
172 56 260 49 103 116 171 268 270 200 131 207 136 238 167 32 31 81 122 76
138 -2 5 -27 -8 -55 -30 -155 -123 -420 -302 -446 -302 -5 0 -1 12 9 28 167
252 275 444 259 460 -4 4 -10 2 -12 -5 -10 -28 -118 -192 -159 -242 -24 -29
-64 -68 -88 -87 -24 -18 -67 -62 -96 -98 -75 -95 -76 -94 -59 49 22 188 49
255 147 360 81 88 106 125 131 196 10 31 34 77 52 102 19 25 50 73 69 107 39
69 120 152 225 231 215 161 343 355 350 528 2 42 6 88 10 102 9 37 -13 76 -92
160 -42 44 -74 90 -88 124 -12 29 -44 90 -70 135 -42 72 -49 92 -55 159 -9 91
-13 102 -79 210 -28 47 -60 115 -71 151 -20 66 -42 96 -90 120 -81 41 -150
126 -176 218 -23 79 -38 54 -32 -55 5 -102 22 -142 92 -220 33 -36 46 -59 46
-81 0 -16 10 -41 21 -56 18 -22 20 -36 15 -73 -4 -29 0 -67 11 -109 17 -63 17
-64 -7 -136 -23 -69 -25 -85 -24 -313 l0 -240 37 -117 c20 -65 41 -155 47
-200 7 -46 13 -85 16 -87 9 -9 25 57 23 94 -2 22 1 40 5 40 39 0 21 157 -35
296 -56 142 -67 214 -46 308 10 40 17 100 17 133 0 43 8 81 29 133 25 60 29
82 24 131 -3 35 0 71 7 89 l12 30 19 -42 c10 -24 29 -59 43 -80 22 -31 24 -39
12 -52 -36 -42 -40 -198 -7 -282 12 -31 50 -98 85 -150 100 -149 99 -148 93
-264 -4 -83 -9 -110 -33 -157 -15 -32 -32 -58 -36 -58 -4 0 -19 22 -33 49 -24
48 -41 68 -51 58 -3 -2 1 -43 7 -90 16 -105 8 -126 -55 -156 -78 -38 -150
-133 -228 -299 -91 -196 -107 -227 -155 -286 -35 -44 -62 -66 -107 -87 -70
-33 -115 -36 -200 -12 -91 25 -132 72 -186 209 -42 107 -43 111 -42 222 1 140
16 247 47 351 13 43 29 114 35 157 7 43 32 144 56 223 64 209 77 286 72 400
-6 102 -27 180 -79 284 -47 95 -61 166 -54 271 l6 91 -20 -23 c-21 -24 -40
-99 -42 -165 -1 -23 -4 -53 -9 -67 -7 -24 -8 -24 -25 14 -9 22 -23 71 -32 110
-13 63 -12 77 2 138 13 51 16 101 13 210 -3 135 -5 147 -35 209 -28 61 -48 87
-58 77 -3 -2 7 -35 20 -74 31 -88 31 -135 0 -218 -22 -57 -25 -81 -23 -161 3
-96 -8 -133 -33 -108 -16 16 -38 158 -39 248 0 56 -8 101 -24 151 -25 75 -69
154 -87 154 -5 0 -8 -4 -5 -8 7 -11 38 -194 33 -198 -2 -2 -34 41 -71 95 -67
99 -95 156 -96 198 0 12 -4 25 -10 28 -6 4 -10 -12 -10 -42z m745 -3500 c5
-10 12 -106 16 -213 5 -107 12 -233 15 -279 7 -96 -4 -164 -48 -302 -35 -107
-25 -99 -166 -145 -120 -40 -124 -33 -34 65 80 87 132 209 132 311 0 33 -7
110 -16 172 -8 62 -14 156 -12 208 3 89 5 99 37 148 34 54 63 67 76 35z"/>
<path d="M2530 4408 c0 -4 9 -23 21 -42 21 -37 36 -113 48 -246 l6 -75 58 -58
c31 -32 57 -62 57 -67 0 -6 5 -10 10 -10 18 0 10 64 -12 100 -12 19 -25 60
-29 90 -8 59 -90 232 -134 285 -14 17 -25 27 -25 23z"/>
<path d="M3550 4384 c1 -53 26 -153 55 -225 45 -111 55 -199 31 -278 -20 -69
-21 -182 0 -251 15 -51 61 -136 69 -128 2 2 -5 40 -17 83 -21 82 -21 184 0
335 13 100 -17 266 -69 376 -25 54 -69 111 -69 88z"/>
<path d="M1493 4120 c-50 -10 -115 -40 -161 -75 -19 -13 -58 -33 -88 -44 -30
-12 -71 -32 -92 -45 -20 -14 -62 -34 -94 -46 -83 -31 -89 -44 -32 -69 25 -12
50 -21 55 -21 15 0 80 -74 106 -122 14 -26 30 -48 35 -48 4 0 8 16 8 36 0 58
-21 123 -46 143 -32 25 -30 41 4 41 57 0 100 -19 120 -55 12 -19 47 -51 79
-71 32 -21 75 -54 96 -73 32 -30 37 -32 37 -15 0 23 -18 51 -72 113 -44 51
-50 92 -15 108 116 56 114 56 185 43 85 -14 106 -28 128 -85 23 -60 34 -40 24
43 -8 64 -30 102 -121 205 -38 43 -80 53 -156 37z"/>
<path d="M2788 3784 c-6 -25 6 -235 31 -539 21 -243 27 -264 120 -420 l42 -70
-6 50 c-8 69 -40 184 -70 255 -33 77 -51 190 -71 437 -16 210 -35 326 -46 287z"/>
<path d="M1093 3382 c-8 -5 -12 -33 -11 -77 0 -60 -5 -80 -33 -140 -32 -65
-37 -71 -79 -84 -25 -7 -65 -21 -90 -30 -25 -8 -63 -20 -85 -26 -37 -9 -40
-13 -43 -49 -6 -76 68 -187 243 -368 132 -135 188 -177 335 -251 175 -87 292
-100 328 -36 18 31 32 35 64 18 16 -9 26 -7 49 10 15 12 43 21 61 21 43 1 142
50 146 73 5 24 -35 22 -73 -3 -32 -21 -65 -26 -65 -10 0 6 -15 10 -34 10 -18
0 -61 9 -95 20 -64 20 -80 19 -120 -12 -44 -33 -118 -16 -186 43 -50 44 -45
52 28 47 46 -4 71 -1 97 12 19 10 51 20 72 24 20 4 39 13 42 21 8 22 -25 35
-89 35 -49 0 -57 -3 -67 -25 -6 -14 -14 -25 -18 -25 -25 0 -74 31 -90 58 -11
18 -31 34 -47 38 -15 4 -36 13 -45 21 -25 22 -82 18 -123 -7 -24 -15 -44 -20
-60 -16 -32 8 -89 66 -114 115 -18 34 -18 40 -5 60 8 11 21 21 27 21 20 -1 64
-44 72 -70 10 -33 22 -40 68 -40 58 0 105 24 112 57 15 72 22 88 38 91 15 3
17 -3 15 -33 -2 -27 3 -40 16 -47 12 -7 16 -17 11 -37 -9 -42 14 -64 67 -65
52 -1 88 23 88 59 0 35 11 36 40 5 20 -21 38 -30 59 -30 18 0 44 -9 59 -20 36
-27 64 -18 60 19 -3 24 -7 26 -48 26 -43 0 -45 1 -48 32 -2 20 -10 34 -21 38
-9 3 -21 20 -26 37 -12 40 -37 47 -82 23 -41 -23 -59 -15 -67 30 -15 78 -76
97 -141 45 -21 -17 -45 -28 -53 -25 -7 3 -28 5 -46 5 -26 0 -34 5 -43 31 -10
26 -8 40 14 97 35 95 34 166 -4 234 -31 55 -41 62 -60 50z"/>
<path d="M3028 2513 c-4 -37 -17 -65 -55 -120 -71 -103 -81 -145 -58 -242 28
-113 24 -179 -18 -286 -45 -117 -59 -186 -55 -260 4 -66 7 -62 32 39 9 37 38
113 65 168 60 120 75 186 68 293 -5 67 -1 98 23 190 39 153 44 189 30 230 -16
48 -27 44 -32 -12z"/>
<path d="M3308 1854 c-35 -42 -91 -111 -126 -153 -46 -56 -68 -92 -82 -140
-24 -77 -24 -85 -3 -147 l18 -49 5 70 c8 93 42 163 124 253 36 40 75 91 87
114 26 51 51 120 45 125 -2 3 -33 -30 -68 -73z"/>
</g>
</svg>
