<?xml version="1.0" standalone="no"?>
<!DOCTYPE svg PUBLIC "-//W3C//DTD SVG 20010904//EN"
 "http://www.w3.org/TR/2001/REC-SVG-20010904/DTD/svg10.dtd">
<svg version="1.0" xmlns="http://www.w3.org/2000/svg"
 width="225.000000pt" height="225.000000pt" viewBox="0 0 225.000000 225.000000"
 preserveAspectRatio="xMidYMid meet">

<g transform="translate(0.000000,225.000000) scale(0.100000,-0.100000)"
fill="#000000" stroke="none">
<path d="M333 2006 c-47 -30 -80 -77 -106 -156 -10 -30 -24 -62 -31 -70 -7 -8
-14 -41 -15 -74 -3 -58 -2 -59 23 -54 32 6 33 -8 6 -59 -22 -41 -30 -173 -9
-143 8 11 9 5 4 -23 -3 -21 -9 -46 -12 -55 -3 -10 1 -8 11 6 11 13 21 53 25
100 5 43 14 89 21 102 12 23 12 24 -3 11 -12 -9 -17 -10 -17 -2 0 7 16 19 35
27 19 8 35 17 35 20 0 3 -6 2 -12 -2 -7 -4 -2 6 12 22 14 15 17 22 8 15 -10
-7 -18 -10 -18 -6 0 4 -8 1 -17 -6 -15 -12 -16 -12 -8 1 4 8 14 22 22 32 10
11 11 18 3 23 -7 4 1 22 25 50 41 50 48 80 9 38 -15 -15 -21 -20 -14 -11 6 10
10 23 7 30 -2 7 0 27 5 43 16 52 17 66 7 60 -11 -7 -43 -76 -41 -87 1 -5 -2
-8 -8 -8 -5 0 -7 -6 -4 -14 3 -8 1 -17 -5 -21 -6 -3 -11 -15 -11 -26 0 -10 -4
-19 -9 -19 -5 0 -12 -13 -16 -29 -8 -37 -35 -63 -35 -34 0 10 6 25 13 32 10
11 9 12 -3 6 -11 -6 -10 -3 3 12 18 21 23 38 8 29 -5 -3 4 26 20 64 36 90 83
150 118 151 23 0 24 1 6 8 -15 6 -10 9 25 15 53 8 46 8 136 3 39 -3 84 -11
100 -18 35 -17 103 -132 103 -176 1 -17 6 -44 11 -58 6 -15 6 -33 2 -41 -5 -9
-16 18 -31 78 -25 102 -40 137 -68 159 -17 13 -17 13 -1 -6 21 -26 38 -69 43
-114 2 -20 9 -56 15 -80 14 -59 8 -73 -14 -28 -9 20 -19 37 -21 37 -9 0 6 -47
23 -70 30 -41 36 -54 24 -46 -7 4 -12 3 -12 -3 0 -5 5 -13 10 -16 6 -4 17 -21
25 -38 l15 -32 -6 44 c-7 52 6 49 35 -8 11 -20 27 -44 37 -52 9 -7 27 -31 40
-51 14 -21 30 -38 37 -38 7 0 42 -30 78 -67 80 -84 109 -119 89 -108 -8 4 1
-6 20 -23 19 -17 29 -31 21 -32 -7 0 10 -21 38 -46 47 -42 68 -74 39 -59 -7 4
10 -14 37 -39 28 -25 46 -45 40 -46 -5 0 17 -27 50 -60 33 -33 56 -60 51 -60
-5 0 8 -18 27 -40 42 -45 77 -110 77 -140 0 -11 7 -23 15 -26 11 -5 15 -22 14
-73 -1 -51 -3 -60 -10 -41 -7 21 -8 18 -4 -13 2 -22 0 -35 -6 -32 -15 10 -10
-7 8 -27 14 -16 14 -18 1 -13 -12 5 -14 1 -11 -17 2 -13 -3 -32 -11 -43 -13
-16 -15 -17 -10 -3 3 10 2 18 -4 18 -5 0 -13 -12 -17 -27 l-7 -28 -13 25 -14
25 -1 -28 c0 -25 -3 -27 -22 -21 -13 4 -33 8 -44 8 -12 1 -32 10 -45 21 -22
20 -22 20 -15 0 6 -17 4 -17 -18 4 -15 14 -26 20 -26 15 0 -5 -9 2 -20 16 -13
15 -18 18 -14 7 5 -13 2 -16 -12 -10 -12 4 -15 3 -10 -6 6 -9 1 -12 -15 -9
-18 2 -24 -2 -23 -15 1 -12 -14 -26 -47 -42 -44 -23 -98 -35 -74 -17 6 4 17
16 25 26 14 18 14 19 -8 7 -13 -7 -25 -18 -28 -25 -2 -6 -14 -13 -27 -13 -17
-2 -19 0 -7 7 8 5 11 10 5 10 -5 0 6 14 25 31 l35 30 -32 -15 c-18 -9 -37 -24
-42 -33 -8 -14 -10 -15 -11 -3 0 13 -1 13 -10 0 -6 -9 -10 -10 -10 -3 0 6 14
21 31 33 16 12 28 25 25 28 -3 2 -12 -1 -21 -8 -9 -7 -18 -10 -21 -7 -3 3 7
14 22 24 21 13 47 18 104 18 61 0 82 4 110 22 21 14 28 23 19 23 -9 0 -22 -7
-29 -15 -14 -17 -45 -21 -35 -5 8 13 -1 13 -28 -2 -20 -10 -21 -10 -9 5 12 14
11 15 -18 7 -26 -7 -31 -6 -26 5 4 11 0 12 -22 4 -14 -6 -31 -14 -37 -19 -19
-15 -52 -15 -70 0 -17 14 -18 13 -12 -3 4 -10 3 -16 -3 -12 -5 3 -14 22 -19
42 -10 35 -9 40 28 118 2 6 -3 4 -11 -3 -9 -7 -21 -26 -28 -43 -21 -50 -21
-25 -1 42 22 70 21 87 -4 40 -23 -45 -26 -38 -9 21 16 56 42 99 63 106 10 3
11 0 1 -19 -7 -14 6 -4 31 22 24 26 55 49 69 53 14 4 42 12 63 18 38 11 38 12
15 24 -13 8 -29 13 -35 14 -20 0 -15 -20 5 -21 28 -2 -29 -17 -68 -18 -23 -1
-54 -14 -92 -41 -52 -36 -57 -37 -63 -20 -3 11 -3 36 0 57 5 29 4 34 -5 23 -8
-12 -9 -10 -5 10 3 14 7 62 8 107 2 84 14 95 27 26 l8 -38 1 35 c0 19 -8 60
-19 90 -13 38 -20 47 -20 30 -1 -24 -1 -24 -15 -6 -16 21 -20 5 -6 -22 4 -9
11 -33 14 -52 l6 -35 -25 45 c-16 28 -23 36 -19 20 3 -14 8 -37 11 -52 8 -37
-5 -140 -17 -133 -5 4 -9 16 -10 28 0 16 -3 13 -13 -13 -7 -21 -9 -42 -4 -52
5 -10 5 -18 1 -18 -3 0 6 -13 21 -29 36 -38 31 -64 -14 -72 -19 -4 -28 -7 -19
-8 20 -1 29 -21 29 -63 0 -26 -2 -29 -15 -18 -14 11 -14 10 -5 -14 14 -37 13
-41 -6 -25 -15 12 -16 11 -10 -11 20 -69 20 -66 2 -51 -19 16 -21 3 -4 -34 15
-34 3 -43 -20 -15 l-19 24 5 -33 c3 -24 -1 -38 -19 -57 -12 -13 -17 -24 -11
-24 18 0 2 -29 -19 -35 -11 -4 -17 -10 -14 -14 2 -5 -4 -16 -15 -26 -11 -10
-20 -28 -20 -41 0 -43 -18 -73 -42 -71 -13 0 -26 6 -30 12 -4 5 -8 0 -8 -12 0
-24 -15 -28 -57 -17 -30 8 -29 15 7 52 17 18 30 36 30 41 0 6 -19 -10 -43 -34
-35 -35 -43 -39 -44 -24 -1 10 7 24 18 29 10 6 19 15 19 21 0 6 -10 3 -22 -5
-26 -18 -42 -21 -33 -6 4 6 21 16 39 24 18 8 43 31 57 52 21 35 23 49 24 169
0 71 -6 168 -13 215 -8 47 -17 108 -21 135 l-7 50 -8 -42 c-4 -23 -4 -48 0
-55 4 -7 -6 1 -24 19 -18 17 -32 36 -32 42 0 6 -6 10 -12 8 -9 -1 -13 12 -11
46 1 44 0 47 -13 30 -14 -17 -15 -16 -8 7 4 13 37 53 73 87 64 61 72 75 29 52
-18 -10 -19 -8 -14 13 3 12 -1 7 -9 -12 -23 -52 -30 -63 -44 -68 -9 -3 -7 6 5
29 14 28 15 32 1 21 -8 -7 -23 -30 -33 -50 l-18 -37 -6 35 -6 35 -9 -40 c-4
-22 -10 -44 -13 -49 -8 -14 -31 35 -33 69 l-1 30 -7 -30 c-6 -29 -7 -28 -29
30 -18 49 -22 73 -17 128 3 44 1 66 -5 62 -6 -4 -10 7 -10 26 0 36 -13 30 -25
-11 -4 -18 -4 -21 4 -11 15 22 26 -31 12 -57 -14 -27 -15 -53 0 -32 7 11 8 5
3 -22 -4 -25 -2 -38 5 -38 6 0 11 -8 11 -17 0 -9 20 -54 45 -100 52 -96 55
-126 30 -295 -18 -119 -33 -148 -75 -148 -23 0 -35 -8 -55 -37 -14 -21 -25
-41 -25 -45 0 -4 14 -15 31 -24 49 -25 134 -11 170 27 15 16 31 29 36 29 5 0
15 9 23 20 14 19 15 19 22 3 4 -12 7 -7 7 17 1 26 4 31 11 20 7 -11 10 -3 10
30 0 29 3 40 9 31 7 -11 9 -11 13 0 8 24 19 -178 12 -218 -9 -53 -39 -98 -74
-113 -43 -18 -53 -41 -36 -82 20 -46 52 -62 107 -52 54 9 61 11 77 12 25 4 52
42 52 76 0 26 10 47 38 79 20 24 42 53 49 63 11 17 12 15 13 -16 l2 -35 11 32
c7 17 15 35 19 39 5 4 8 26 9 48 0 33 2 37 10 21 6 -14 7 -1 3 40 l-6 60 25
-23 c15 -14 29 -44 37 -80 10 -43 14 -52 20 -37 7 19 7 19 14 -3 4 -12 16 -27
27 -32 18 -10 18 -13 4 -40 -23 -44 -19 -57 21 -70 45 -15 119 -9 165 14 53
27 118 30 212 12 79 -16 88 -16 123 -1 22 9 45 18 53 19 8 2 18 11 22 22 4 10
8 15 8 11 2 -15 31 21 31 38 0 8 -7 31 -14 50 -9 20 -11 35 -5 35 19 0 77 -28
119 -59 24 -17 55 -31 69 -31 l26 1 -27 15 c-16 8 -28 17 -28 19 0 7 49 -13
73 -30 12 -8 37 -15 57 -14 29 0 31 2 15 9 -15 6 -5 9 35 9 59 1 131 17 128
29 -3 10 61 72 74 72 6 0 8 11 4 26 -5 18 -3 24 5 18 9 -5 10 6 5 45 -5 36 -4
51 3 46 7 -4 8 1 4 12 -15 42 -47 73 -99 98 -66 31 -66 41 -1 21 26 -8 47 -11
47 -7 0 15 -90 50 -157 61 -75 12 -106 29 -56 31 37 2 33 2 73 -5 l35 -6 -35
16 c-88 41 -215 32 -227 -16 -5 -19 -6 -20 -20 -3 -13 17 -14 16 -8 -5 7 -23
7 -23 -31 -7 -21 8 -45 21 -53 27 -9 7 -5 0 8 -15 27 -30 18 -36 -18 -11 -22
16 -23 16 -12 -4 6 -12 16 -24 22 -28 8 -4 7 -9 -2 -15 -9 -5 -4 -10 17 -15
29 -8 29 -8 -16 -20 l-45 -12 45 -1 45 -2 -24 -19 c-27 -23 -17 -26 19 -5 14
8 42 14 63 15 32 0 37 -3 37 -22 0 -50 -46 -78 -126 -78 l-61 0 -13 39 c-30
93 -119 217 -285 401 -33 37 -78 93 -100 126 -22 32 -67 84 -100 114 -151 140
-205 206 -205 250 0 17 -7 45 -16 62 -15 28 -25 76 -26 118 0 8 -19 51 -41 95
-57 107 -74 117 -225 122 -112 4 -119 3 -159 -21z m437 -307 c0 -6 -4 -7 -10
-4 -5 3 -10 11 -10 16 0 6 5 7 10 4 6 -3 10 -11 10 -16z m965 -751 c-11 -6
-28 -18 -37 -26 -11 -9 -18 -11 -18 -4 0 12 47 41 65 41 6 0 1 -5 -10 -11z
m-964 -31 c-10 -9 -11 -8 -5 6 3 10 9 15 12 12 3 -3 0 -11 -7 -18z m-376 -47
c2 0 2 6 -1 14 -3 8 -1 17 5 20 5 4 12 -3 16 -14 3 -11 10 -20 15 -20 4 0 15
-17 23 -39 19 -46 10 -140 -16 -169 -9 -10 -17 -27 -18 -38 -1 -14 -3 -13 -8
6 -7 24 -8 24 -15 -8 -5 -23 -12 -32 -22 -28 -9 3 -14 -1 -14 -13 0 -25 -32
-51 -69 -56 -35 -4 -37 -2 -15 19 14 15 14 16 -1 16 -9 0 -19 -9 -22 -20 -4
-17 -23 -29 -23 -16 0 2 -3 11 -6 20 -4 11 2 19 17 26 l24 10 -25 -3 c-15 -1
-30 -12 -37 -27 -12 -23 -13 -23 -13 -4 0 27 21 45 62 53 46 9 64 48 83 176 9
61 19 121 22 135 6 25 7 25 20 -7 7 -18 15 -33 18 -33z m1355 45 c-11 -13 -7
-15 23 -15 45 0 90 -17 82 -30 -3 -5 1 -10 9 -10 19 0 140 -66 156 -85 17 -20
5 -19 -27 2 -26 17 -26 17 -15 -4 7 -12 15 -23 20 -25 10 -4 52 -63 52 -73 0
-4 -7 -5 -15 -2 -11 5 -12 2 -3 -17 13 -30 -7 -75 -42 -93 -31 -16 -114 -17
-143 -2 -21 11 -21 11 -5 -7 10 -10 39 -21 65 -24 46 -6 47 -7 18 -15 -21 -6
-50 -3 -95 9 -89 25 -124 30 -76 11 22 -8 42 -18 45 -21 10 -10 -93 8 -106 18
-6 5 -23 10 -37 12 -14 1 -34 9 -43 17 -10 9 -31 21 -47 28 -26 11 -28 10 -16
-3 13 -17 4 -21 -24 -10 -12 4 -16 20 -16 56 l0 50 78 -7 c46 -4 72 -3 64 3
-9 6 -1 12 28 21 49 15 80 43 80 74 0 19 -2 18 -20 -10 -22 -37 -35 -43 -25
-13 10 33 -4 58 -48 85 -35 21 -38 25 -19 25 13 0 32 -5 43 -11 18 -9 19 -9 7
11 -12 19 -10 24 15 46 31 27 57 33 37 9z"/>
<path d="M375 1930 c-3 -5 3 -10 15 -10 12 0 18 5 15 10 -3 6 -10 10 -15 10
-5 0 -12 -4 -15 -10z"/>
<path d="M570 1921 c0 -4 11 -6 25 -3 14 2 25 6 25 8 0 2 -11 4 -25 4 -14 0
-25 -4 -25 -9z"/>
<path d="M400 1884 c-19 -13 -29 -24 -23 -24 7 0 15 5 19 11 3 6 17 9 30 6 15
-3 24 0 24 9 0 23 -14 22 -50 -2z"/>
<path d="M560 1869 c0 -17 3 -19 13 -10 8 6 24 9 38 6 23 -4 23 -4 5 10 -29
22 -56 19 -56 -6z"/>
<path d="M424 1850 c-29 -11 -39 -29 -20 -36 19 -7 56 13 56 31 0 17 -6 18
-36 5z"/>
<path d="M595 1830 c3 -6 -1 -7 -9 -4 -9 3 -16 2 -16 -4 0 -13 27 -23 45 -16
12 5 13 10 4 20 -13 16 -33 19 -24 4z"/>
<path d="M435 1797 c-11 -7 -21 -13 -23 -13 -2 -1 -5 -14 -8 -30 -5 -28 -4
-27 25 10 40 50 40 53 6 33z"/>
<path d="M600 1768 c43 -72 47 -103 19 -174 -8 -24 -10 -24 -38 -9 -16 8 -32
23 -34 32 -3 13 -5 14 -6 3 -1 -8 -20 -23 -43 -33 -41 -17 -43 -17 -70 3 -43
32 -52 23 -18 -19 20 -23 21 -23 69 -7 61 20 72 20 97 1 29 -22 2 -35 -76 -34
-49 1 -70 5 -85 19 -68 63 -61 61 -84 34 -11 -13 -25 -24 -31 -24 -5 0 -7 -6
-4 -14 3 -9 -5 -20 -23 -30 -17 -9 -22 -15 -12 -16 9 0 28 9 42 20 27 22 42
26 32 10 -8 -13 1 -13 25 2 15 10 22 9 38 -5 15 -13 38 -17 109 -17 l91 0 32
56 c36 64 41 120 16 159 -9 14 -15 29 -12 33 3 5 -8 16 -25 26 l-29 17 20 -33z"/>
<path d="M508 1729 c-27 -15 -22 -54 8 -74 21 -14 31 -15 54 -5 46 19 50 63 7
75 -46 14 -53 14 -69 4z m82 -31 c0 -5 -7 -8 -16 -8 -10 0 -14 -6 -11 -14 3
-8 -2 -16 -14 -19 -16 -4 -19 -2 -13 15 5 18 3 20 -15 15 -19 -5 -28 3 -16 14
7 8 85 5 85 -3z"/>
<path d="M426 1705 c-17 -25 -42 -84 -32 -74 9 8 56 99 52 99 -2 0 -11 -11
-20 -25z"/>
<path d="M362 1687 c-6 -7 -16 -25 -22 -41 -9 -24 -8 -27 6 -22 8 3 18 6 20 6
3 0 2 4 -1 10 -3 5 -1 19 5 31 13 24 8 35 -8 16z"/>
<path d="M694 1595 c3 -8 9 -22 13 -32 4 -11 3 -14 -5 -9 -7 4 -12 3 -12 -3 0
-5 8 -15 18 -20 16 -10 16 -10 -2 -11 -15 0 -10 -7 20 -35 20 -19 39 -33 41
-32 1 2 -6 21 -16 43 -10 21 -22 53 -25 71 -4 17 -14 34 -23 37 -11 4 -13 2
-9 -9z"/>
<path d="M790 1495 c43 -32 48 -32 19 0 -13 13 -30 25 -38 25 -8 0 0 -11 19
-25z"/>
<path d="M345 1480 c-10 -11 -28 -20 -41 -20 -26 0 -49 -33 -37 -53 6 -8 24 3
62 41 30 28 50 52 44 52 -5 0 -18 -9 -28 -20z m-63 -62 c-7 -7 -12 -8 -12 -2
0 14 12 26 19 19 2 -3 -1 -11 -7 -17z"/>
<path d="M392 1484 c-12 -8 -22 -20 -22 -25 0 -6 -16 -25 -35 -43 -35 -33 -50
-61 -19 -35 9 7 33 14 53 15 20 1 39 3 43 3 9 1 32 45 43 80 7 23 7 23 -16 7
-29 -20 -45 -21 -29 -1 16 19 10 19 -18 -1z m19 -67 c-14 -14 -21 -17 -21 -8
0 11 -3 11 -17 0 -16 -13 -17 -12 -4 3 7 10 17 15 22 13 4 -3 13 5 20 17 9 16
14 19 17 9 2 -7 -5 -23 -17 -34z"/>
<path d="M482 1478 c-7 -7 -12 -16 -12 -22 0 -5 -7 -18 -17 -28 -9 -10 -11
-18 -5 -18 7 0 9 -7 5 -17 -4 -11 -3 -14 5 -9 12 7 17 -16 14 -57 -3 -30 15
-10 23 25 11 49 14 127 6 133 -4 2 -13 -1 -19 -7z m10 -30 c-8 -8 -9 -4 -5 13
4 13 8 18 11 10 2 -7 -1 -18 -6 -23z"/>
<path d="M810 1430 c12 -23 1 -27 -31 -10 -20 11 -28 -3 -9 -15 18 -11 10 -23
-12 -18 -23 5 -23 5 -3 -10 25 -20 9 -21 -25 -2 -30 17 -44 19 -35 5 8 -13 -1
-13 -26 0 -12 7 -19 7 -19 1 0 -12 19 -18 85 -27 28 -3 56 -11 63 -17 20 -16
39 8 22 28 -20 25 -3 30 36 11 45 -21 58 -14 14 9 -17 9 -35 27 -40 40 -5 14
-14 25 -20 25 -8 0 -8 -6 0 -20z"/>
<path d="M326 1355 c-21 -21 -20 -46 3 -103 11 -26 22 -54 24 -62 3 -8 6 2 6
23 1 46 17 48 30 5 9 -32 9 -31 10 17 1 39 4 47 12 35 9 -12 10 -12 5 3 -3 10
-6 28 -6 40 -1 21 -1 21 -14 -2 -13 -23 -14 -23 -18 -5 -4 15 -8 12 -18 -16
l-14 -35 -8 33 c-6 20 -5 40 3 53 14 27 6 34 -15 14z"/>
<path d="M946 1255 c6 -16 5 -18 -7 -7 -21 19 -31 14 -18 -10 l12 -21 -28 21
c-35 28 -41 23 -21 -17 9 -16 16 -38 17 -48 0 -16 1 -16 8 1 10 26 25 4 17
-24 -3 -11 -8 -30 -12 -42 -5 -23 -5 -23 11 -3 23 27 55 102 55 127 0 12 -3
18 -7 15 -3 -4 -12 1 -20 11 -12 16 -13 15 -7 -3z"/>
<path d="M757 1078 c16 -18 16 -18 -1 -12 -14 5 -13 2 5 -17 13 -13 25 -19 27
-13 5 20 -16 61 -32 61 -14 0 -14 -2 1 -19z"/>
<path d="M484 1082 c-5 -4 -22 -29 -37 -56 -28 -51 -27 -52 27 -30 15 6 17 4
11 -7 -7 -11 -5 -11 10 1 19 16 50 79 42 87 -3 2 -15 -10 -27 -26 -12 -17 -25
-31 -30 -31 -10 0 -1 40 13 58 11 13 7 15 -9 4z"/>
<path d="M1166 914 c-19 -13 -19 -14 0 -21 26 -10 186 -122 202 -142 11 -14
12 -13 2 6 -5 12 -26 34 -45 49 -19 14 -32 30 -29 35 3 5 -2 9 -11 9 -9 0 -26
5 -37 11 -17 9 -18 13 -7 20 11 6 8 9 -8 9 -17 0 -21 4 -16 17 5 11 3 14 -6 8
-7 -4 -16 -3 -20 3 -4 7 -13 6 -25 -4z"/>
<path d="M536 870 c15 -22 28 -40 30 -40 2 0 1 17 -1 38 l-5 37 26 -30 c16
-18 22 -22 15 -9 -14 29 -31 40 -64 42 l-27 2 26 -40z"/>
<path d="M1351 618 c43 -55 69 -76 50 -40 -6 11 -11 33 -11 49 0 22 -2 25 -10
13 -7 -11 -10 -11 -10 -2 0 7 -4 11 -9 8 -5 -3 -14 1 -21 9 -7 8 -17 15 -21
15 -5 0 9 -24 32 -52z"/>
</g>
</svg>
