<?xml version="1.0" standalone="no"?>
<!DOCTYPE svg PUBLIC "-//W3C//DTD SVG 20010904//EN"
 "http://www.w3.org/TR/2001/REC-SVG-20010904/DTD/svg10.dtd">
<svg version="1.0" xmlns="http://www.w3.org/2000/svg"
 width="750.000000pt" height="1000.000000pt" viewBox="0 0 750.000000 1000.000000"
 preserveAspectRatio="xMidYMid meet">

<g transform="translate(0.000000,1000.000000) scale(0.100000,-0.100000)"
fill="#000000" stroke="none">
<path d="M5355 9542 c-33 -8 -63 -53 -91 -136 -18 -54 -102 -196 -143 -240
-46 -50 -224 -178 -291 -209 -138 -63 -159 -67 -347 -67 -96 0 -215 -5 -266
-10 -67 -8 -118 -7 -183 1 -50 6 -313 15 -599 18 -601 8 -601 8 -815 120 -69
36 -182 93 -251 127 l-126 62 -53 99 c-65 120 -86 149 -126 174 -42 25 -92 24
-162 -5 -31 -13 -68 -27 -82 -31 -49 -15 -160 -86 -219 -141 -33 -30 -83 -92
-112 -137 -46 -70 -373 -749 -423 -876 -9 -24 -35 -73 -56 -109 -73 -121 -143
-338 -155 -480 -6 -72 -27 -255 -75 -642 -33 -273 -35 -297 -19 -370 11 -53
52 -104 96 -121 27 -10 25 -5 48 -129 21 -118 73 -283 132 -415 41 -93 45
-109 54 -225 14 -178 56 -494 79 -603 44 -195 163 -511 259 -686 33 -58 104
-196 159 -306 113 -226 291 -529 403 -684 78 -110 287 -342 360 -401 l43 -35
-42 60 c-23 33 -83 105 -133 160 -203 222 -348 449 -608 950 -217 420 -233
453 -290 608 -94 252 -118 354 -155 648 -28 223 -34 279 -26 279 3 0 18 -33
34 -73 16 -39 55 -124 86 -187 57 -114 57 -116 64 -230 11 -180 23 -219 25
-77 0 64 4 117 9 117 4 0 24 -33 45 -73 37 -71 38 -75 48 -232 9 -148 40 -350
55 -364 4 -3 4 23 1 59 -4 36 -9 124 -12 195 -4 72 -9 141 -11 155 -8 37 8 17
59 -75 43 -77 45 -87 56 -205 15 -161 37 -305 62 -402 19 -76 68 -202 76 -195
2 2 -3 31 -12 63 -27 103 -64 336 -70 439 l-5 100 29 -80 c53 -144 123 -378
146 -490 22 -107 62 -231 72 -222 2 3 0 22 -6 44 -23 82 -8 63 28 -37 46 -126
326 -698 387 -790 24 -36 66 -90 94 -120 49 -53 51 -57 60 -135 17 -145 49
-212 123 -262 96 -64 187 -64 382 -2 169 55 295 157 359 293 l35 74 91 46 c73
38 189 86 207 86 1 0 3 -9 3 -20 0 -29 36 -26 56 5 14 22 21 25 53 19 54 -10
97 -34 216 -124 131 -98 216 -142 395 -204 180 -63 279 -86 371 -86 61 0 89
-5 135 -26 109 -49 340 -40 477 19 61 25 148 120 187 202 27 57 60 190 60 241
0 13 11 33 24 46 59 57 251 313 320 427 20 32 43 77 50 99 8 23 41 87 74 144
123 213 222 424 298 633 129 354 154 434 170 542 8 57 18 123 23 146 25 109
32 197 32 377 0 156 -4 217 -21 305 -33 174 -40 236 -50 470 l-10 220 30 28
c17 15 37 27 44 27 25 0 76 159 75 230 -1 28 -5 21 -18 -35 -24 -95 -51 -175
-60 -175 -5 0 -25 -11 -46 -25 -20 -15 -38 -25 -40 -23 -1 2 -9 38 -18 81 -21
95 -20 136 2 257 19 102 23 100 37 -25 4 -33 10 -69 15 -80 9 -22 3 110 -11
215 -4 36 -5 126 -3 200 6 150 -26 552 -54 674 -14 65 -75 192 -212 448 -78
145 -214 484 -213 533 0 22 -2 32 -5 23 -2 -10 -8 -18 -13 -18 -14 0 -21 51
-15 109 5 41 3 52 -4 41 -6 -8 -11 -25 -11 -37 0 -37 -15 -26 -41 29 -33 72
-129 198 -187 246 -26 21 -80 62 -121 90 -41 29 -71 52 -68 52 4 0 48 -13 99
-30 110 -35 192 -94 239 -170 17 -28 33 -50 35 -50 14 0 0 43 -27 84 -73 109
-264 195 -449 202 -52 1 -108 0 -125 -4z m130 -22 c-3 -5 -12 -10 -20 -10 -8
0 -51 -25 -95 -55 -88 -60 -91 -58 -49 27 17 32 24 37 61 41 88 8 109 7 103
-3z m157 -114 c160 -114 231 -201 320 -395 40 -90 46 -111 42 -150 -5 -43 -4
-44 9 -23 l14 24 12 -31 c8 -18 11 -50 7 -83 -4 -46 -4 -50 6 -25 7 15 15 27
18 27 16 0 29 -76 20 -115 -5 -22 -9 -53 -9 -70 1 -25 4 -21 18 23 l18 54 21
-55 c11 -30 19 -63 17 -74 -12 -58 -14 -83 -6 -83 4 0 12 15 17 32 10 32 10
31 86 -107 104 -190 155 -299 172 -370 17 -68 56 -442 56 -532 l-1 -58 -24 73
c-14 40 -41 105 -61 145 -39 78 -214 350 -221 343 -2 -2 34 -66 80 -142 46
-77 99 -168 116 -202 36 -72 97 -247 106 -307 7 -41 -3 -135 -31 -288 -15 -79
-18 -86 -31 -70 -13 17 -14 16 -8 -5 11 -38 7 -99 -13 -232 -11 -69 -19 -126
-17 -128 1 -1 15 37 30 85 28 86 28 87 36 53 25 -109 40 -1250 19 -1485 -14
-161 -41 -234 -188 -512 -66 -125 -165 -318 -220 -428 -55 -110 -138 -265
-184 -346 -54 -93 -96 -182 -118 -247 -33 -96 -50 -125 -50 -84 0 9 -14 42
-31 72 -54 97 -60 123 -63 295 -2 116 -8 178 -21 226 l-18 66 26 81 c20 59 27
102 27 157 0 50 7 96 21 138 53 156 28 324 -85 589 l-38 86 23 89 c19 72 23
114 23 238 -1 83 -4 186 -9 230 -8 74 -10 62 -20 -166 -7 -135 -16 -253 -22
-262 -7 -13 -14 19 -27 120 -9 76 -26 175 -36 220 -22 94 -76 239 -92 249 -8
5 -9 1 -3 -12 40 -97 58 -182 85 -409 22 -190 39 -266 105 -450 41 -117 43
-125 21 -108 -134 106 -302 213 -356 228 -38 11 -23 0 192 -139 l197 -128 17
-95 c20 -111 15 -193 -15 -278 -14 -41 -21 -83 -21 -138 0 -57 -7 -99 -27
-158 l-26 -81 19 -72 c15 -55 19 -105 19 -226 0 -85 -3 -171 -8 -190 -6 -26
-5 -32 4 -23 9 9 22 -8 56 -73 91 -178 65 -315 -70 -360 -74 -25 -176 -23
-265 5 -131 40 -178 66 -228 129 -53 66 -258 476 -294 587 -17 52 -74 166
-116 233 -19 29 -34 54 -34 56 0 10 92 38 110 33 11 -3 20 -1 20 3 0 15 -54
21 -90 10 -19 -5 -39 -10 -44 -10 -11 0 0 84 20 164 8 32 14 65 12 74 -2 9
-17 -38 -33 -105 l-30 -122 -32 31 -32 31 25 32 c31 41 31 55 -1 25 -30 -29
-31 -23 -9 90 8 45 13 87 11 93 -2 6 -17 -15 -35 -45 -29 -53 -52 -79 -52 -61
0 4 11 47 24 96 13 48 20 87 16 87 -5 0 -11 -8 -14 -18 -8 -25 -93 -118 -101
-110 -3 3 10 63 29 133 20 70 33 131 30 136 -11 19 -26 6 -65 -56 -42 -65 -66
-84 -56 -42 13 52 19 147 10 147 -6 0 -22 -29 -37 -64 -15 -35 -36 -72 -47
-82 -18 -17 -19 -16 -19 22 0 21 9 73 20 114 36 137 20 157 -41 52 -19 -34
-38 -59 -42 -55 -9 9 -8 106 2 166 4 26 4 44 0 40 -12 -12 -29 -107 -29 -162
0 -93 35 -93 82 0 34 67 34 58 3 -56 -14 -49 -25 -101 -25 -115 -1 -23 -3 -21
-25 15 -72 116 -110 277 -121 506 l-6 146 35 1 c19 1 61 13 93 27 38 17 88 29
139 34 89 9 161 39 223 95 55 50 112 86 136 86 92 1 205 147 205 265 0 51 -19
105 -54 151 -24 32 -26 38 -15 65 33 80 -25 226 -140 351 -76 84 -180 136
-364 185 -193 52 -230 56 -396 43 -276 -21 -376 -60 -529 -205 -185 -175 -249
-353 -178 -496 22 -45 27 -70 27 -129 0 -60 5 -81 27 -123 35 -64 126 -138
197 -160 29 -10 69 -28 87 -42 67 -48 132 -83 183 -98 191 -55 217 -60 252
-49 l34 10 0 -61 c0 -34 5 -134 11 -222 12 -178 13 -172 -60 -348 -29 -68 -50
-96 -179 -238 -81 -88 -161 -186 -179 -216 -41 -73 -101 -223 -156 -393 -49
-149 -125 -309 -183 -386 -21 -27 -67 -81 -102 -120 -36 -40 -74 -87 -86 -105
l-21 -34 43 34 c45 37 135 135 197 216 53 70 146 267 193 410 42 126 98 268
138 347 23 46 334 399 321 365 -4 -10 -14 -59 -23 -108 -15 -79 -15 -92 -2
-105 21 -21 44 -8 62 36 17 43 82 148 71 115 -4 -11 -20 -55 -36 -98 -37 -100
-38 -163 -3 -139 16 11 129 182 121 182 -3 0 -28 -32 -57 -71 -29 -38 -54 -68
-56 -66 -2 2 12 53 30 113 19 61 36 121 38 134 5 39 -16 32 -45 -15 -16 -25
-30 -45 -32 -45 -2 0 -1 18 2 40 7 47 -12 55 -28 14 -5 -15 -11 -25 -13 -23
-7 8 32 176 54 238 l23 63 22 -59 c41 -108 75 -164 158 -254 45 -50 90 -101
101 -114 l19 -23 -72 -85 c-64 -76 -101 -109 -101 -89 0 4 12 45 25 91 14 47
25 93 25 103 0 28 -23 21 -60 -17 -39 -40 -45 -40 -29 1 21 55 28 84 18 84 -5
0 -9 -7 -9 -16 0 -9 -16 -44 -35 -78 -19 -35 -35 -70 -35 -79 0 -31 35 -17 77
30 l42 48 -30 -88 c-58 -170 7 -176 129 -12 25 33 43 53 40 45 -4 -8 -22 -56
-42 -107 -39 -100 -45 -140 -21 -149 24 -10 60 20 125 106 33 44 63 80 65 80
6 0 -18 -65 -59 -157 -37 -83 -44 -117 -26 -128 17 -11 47 13 115 95 38 44 70
78 72 76 3 -3 -14 -46 -37 -96 -22 -51 -40 -100 -38 -109 7 -35 38 -22 99 43
35 36 64 64 66 62 2 -2 -12 -46 -31 -97 -48 -132 -49 -134 -31 -149 13 -11 22
-6 62 36 26 26 44 42 41 34 -43 -105 -51 -118 -71 -119 -12 -1 -49 -4 -83 -7
-33 -3 -84 -1 -113 4 -34 6 -49 6 -43 0 6 -6 45 -15 89 -21 43 -6 80 -12 82
-14 7 -5 -31 -43 -39 -38 -11 7 -87 -79 -107 -120 -12 -25 -23 -35 -40 -35
-25 0 -34 -12 -162 -222 -70 -115 -100 -153 -87 -110 41 129 77 300 69 330 -7
30 -37 28 -63 -5 -12 -15 -55 -87 -97 -160 -68 -121 -96 -162 -78 -115 13 35
45 205 45 243 0 28 -4 39 -15 39 -17 0 -32 -23 -149 -233 -49 -87 -89 -157
-91 -155 -1 2 17 62 40 133 84 254 70 271 -49 57 -43 -79 -80 -141 -82 -139
-2 2 15 46 37 98 115 263 107 293 -16 62 -44 -84 -84 -155 -88 -159 -4 -4 4
23 19 62 36 92 74 212 73 227 -2 35 -159 -351 -159 -392 0 -25 -5 -29 -42 -39
l-43 -11 45 4 45 4 -60 -33 c-33 -18 -62 -31 -64 -29 -2 1 19 42 47 90 27 49
66 122 86 163 34 69 35 72 10 45 -41 -47 -128 -183 -168 -262 -41 -82 -52 -90
-196 -141 -93 -32 -231 -66 -252 -60 -11 2 -11 24 0 128 15 135 43 217 94 274
15 16 26 31 24 33 -2 2 -27 -8 -57 -21 -72 -33 -109 -42 -109 -26 0 10 -3 10
-15 0 -21 -18 -20 -6 16 140 29 118 52 343 30 295 -15 -34 -101 -408 -101
-439 l0 -28 -87 4 c-109 5 -191 39 -223 90 -44 72 -62 140 -68 255 -4 99 -2
121 17 179 13 36 20 72 17 80 -3 8 10 36 28 62 42 59 120 201 114 208 -3 2
-21 -22 -41 -53 -19 -32 -51 -76 -71 -98 -35 -39 -35 -40 -36 -14 0 32 60 209
174 509 46 123 83 227 80 229 -6 6 -4 8 -56 -104 -55 -119 -135 -311 -174
-415 -15 -41 -31 -79 -36 -85 -14 -16 -9 59 5 80 8 11 22 34 32 50 l19 30 -27
-24 -27 -24 0 30 c0 62 123 468 202 667 21 54 37 100 34 103 -8 8 -56 -63 -85
-128 -16 -35 -52 -136 -81 -224 -47 -146 -72 -208 -57 -145 3 14 11 79 17 145
6 66 23 162 36 213 34 126 24 140 -14 21 -54 -166 -103 -595 -91 -784 4 -64 3
-126 -2 -148 -10 -39 -4 -77 12 -77 14 0 11 -53 -5 -91 -53 -128 -10 -401 78
-493 36 -38 124 -74 190 -77 38 -2 45 -6 40 -18 -33 -82 -94 -248 -94 -258 0
-24 -29 -25 -62 -2 -72 49 -88 70 -90 118 -1 44 -2 44 -5 9 -2 -21 -6 -38 -9
-38 -7 0 -65 67 -102 119 -19 25 -58 96 -89 156 -50 102 -52 108 -23 78 32
-34 55 -46 28 -15 -46 51 -156 316 -204 490 -29 105 -124 583 -124 623 0 7 14
-7 30 -29 30 -42 47 -55 37 -27 -4 8 -2 17 4 20 5 4 18 25 30 48 l20 42 -25
-27 c-14 -16 -28 -28 -31 -28 -17 0 37 223 110 451 73 229 78 274 10 99 -78
-199 -119 -322 -140 -416 -22 -99 -24 -108 -30 -102 -2 2 -16 34 -29 71 -19
48 -22 65 -12 61 19 -7 40 27 66 101 26 75 25 80 -6 25 -13 -25 -22 -36 -20
-25 11 45 60 218 112 393 30 102 53 192 52 200 -4 17 -182 -515 -205 -611 -9
-37 -17 -66 -19 -65 -1 2 -14 45 -28 96 -19 73 -22 91 -10 81 22 -18 46 11 78
90 30 75 25 73 -20 -7 l-33 -57 -1 50 c0 48 20 188 55 383 9 51 15 98 13 104
-11 33 -78 -270 -104 -467 l-7 -60 -24 115 c-12 63 -26 150 -29 193 -4 42 -10
77 -15 77 -4 0 -5 -24 -2 -54 6 -59 -3 -126 -17 -126 -13 0 -38 76 -50 150 -6
36 -13 139 -16 230 -2 91 -9 212 -15 270 -8 74 -8 157 0 284 16 259 2 257 -69
-9 -46 -175 -68 -245 -69 -226 -1 18 40 265 89 530 40 216 47 277 31 267 -5
-3 -33 -72 -63 -152 -47 -129 -54 -142 -58 -112 -4 22 20 133 73 343 44 176
77 325 75 345 l-3 35 -26 -50 c-14 -27 -50 -110 -79 -183 -29 -72 -55 -130
-57 -128 -6 6 138 472 176 571 17 43 29 81 26 83 -2 2 -20 -29 -40 -69 -35
-71 -143 -249 -150 -249 -4 0 60 147 219 504 64 143 115 261 113 263 -11 10
-397 -824 -397 -858 0 -6 7 -9 16 -7 10 2 42 45 72 95 31 51 57 92 58 90 1 -1
-16 -54 -37 -117 -52 -150 -129 -417 -129 -447 0 -18 5 -24 17 -21 19 3 44 60
149 338 102 269 84 186 -106 -489 -33 -118 -63 -239 -67 -269 -6 -54 -5 -55
16 -49 21 5 22 3 17 -26 -29 -161 -61 -576 -53 -691 l5 -80 -30 50 -29 49 5
185 c7 220 17 335 57 653 17 131 29 243 27 249 -7 19 -67 -270 -83 -392 -17
-132 -31 -297 -41 -485 l-7 -130 -38 80 c-45 94 -47 134 -24 345 19 168 46
319 89 497 44 178 69 303 63 310 -8 7 -73 -201 -107 -340 -49 -199 -86 -435
-93 -587 l-2 -55 -42 100 c-38 90 -43 111 -48 210 -8 130 -11 143 -81 302 -30
67 -51 128 -49 135 3 7 -9 29 -26 48 l-32 34 -9 231 c-11 265 1 496 33 657 20
103 78 292 86 284 2 -2 1 -37 -3 -78 -5 -40 -10 -63 -12 -50 -5 34 -19 26 -26
-15 -10 -61 -7 -245 5 -286 17 -61 29 -33 29 67 0 59 5 106 14 128 14 32 46
267 46 333 0 27 58 194 59 171 1 -5 -6 -53 -15 -107 -8 -54 -14 -111 -12 -126
4 -28 4 -28 22 10 24 53 51 257 37 279 -8 13 0 43 38 135 196 475 290 644 469
844 54 59 158 137 169 126 3 -4 -1 -40 -9 -80 -9 -39 -14 -74 -12 -76 5 -5 59
116 67 150 8 31 29 39 105 39 81 0 177 -41 230 -98 121 -131 191 -235 192
-283 0 -8 -20 -30 -45 -48 -64 -46 -164 -176 -224 -292 -29 -55 -51 -102 -49
-105 3 -2 41 51 85 119 86 131 209 267 242 267 11 0 23 5 27 11 8 14 175 6
215 -10 13 -5 18 -10 11 -10 -21 -1 -124 -76 -162 -118 -102 -111 -105 -126
-7 -35 88 82 176 128 304 159 107 26 108 26 258 13 209 -18 732 -16 895 4 74
10 206 16 325 16 110 1 232 5 270 10 44 6 172 5 340 -1 246 -10 276 -13 338
-35 251 -89 409 -203 592 -427 39 -47 72 -83 74 -81 9 8 -94 149 -160 219
-127 134 -263 220 -446 285 -59 20 -100 39 -92 42 29 10 -4 23 -72 26 -38 2
-69 7 -69 11 0 3 9 20 21 36 51 76 108 209 143 336 13 48 26 66 80 117 58 54
170 122 201 122 7 0 59 -33 117 -74z m-3587 32 c30 -28 132 -198 119 -198 -3
0 -33 9 -67 21 -48 16 -76 20 -124 15 l-63 -5 0 39 c0 53 -15 51 -31 -5 -12
-41 -19 -48 -69 -71 -69 -32 -227 -190 -319 -319 -97 -138 -233 -425 -386
-815 -40 -102 -96 -243 -125 -315 -54 -134 -91 -277 -110 -425 -14 -105 -19
-428 -10 -610 3 -74 5 -137 4 -138 -8 -12 -55 39 -65 68 -16 45 -18 158 -3
168 14 9 25 90 13 94 -5 2 -3 48 5 108 8 58 22 175 31 260 9 85 18 162 20 170
3 8 11 83 20 165 17 181 47 293 118 457 30 68 60 141 68 163 7 22 69 155 137
295 69 140 142 294 163 342 130 297 266 447 469 520 30 11 71 26 90 34 54 20
77 17 115 -18z m3120 -334 c-18 -53 -52 -127 -75 -165 l-41 -69 -108 0 c-60 0
-122 3 -139 6 -31 6 -29 7 41 41 91 44 291 194 324 244 14 22 27 39 29 39 2 0
-12 -43 -31 -96z m-2772 -25 c45 -23 118 -62 162 -87 127 -72 307 -130 413
-133 21 -1 -2 -7 -53 -14 -49 -8 -103 -18 -118 -24 -34 -13 -40 -14 -33 -2 5
7 -22 11 -231 28 -58 4 -73 9 -73 22 -1 33 -43 108 -101 178 -33 40 -58 73
-54 73 3 0 42 -19 88 -41z m1352 -227 l160 -7 -105 -6 c-152 -9 -643 -10 -725
-1 -55 5 -24 8 150 12 121 3 252 7 290 8 39 1 142 -1 230 -6z m380 -2082 c99
-17 296 -79 367 -116 91 -48 173 -129 232 -230 52 -88 62 -136 46 -203 -17
-72 -60 -117 -127 -137 -87 -25 -222 -8 -275 35 -34 28 -32 106 6 188 31 68
29 99 -9 109 -57 14 -144 -62 -170 -150 -29 -98 -16 -158 51 -235 46 -53 86
-71 156 -71 55 0 66 5 148 68 24 17 50 32 59 32 41 0 94 24 124 55 19 19 37
35 40 35 3 0 19 -21 34 -47 39 -67 39 -147 -1 -219 -44 -81 -77 -111 -142
-130 -64 -18 -97 -38 -159 -94 -61 -55 -126 -82 -219 -91 -52 -5 -101 -16
-136 -32 -64 -30 -84 -33 -125 -24 l-30 8 0 337 c0 247 -3 342 -12 357 -10 16
-12 -52 -13 -337 0 -419 7 -394 -108 -360 -37 11 -84 23 -106 27 -54 9 -144
50 -189 87 -22 17 -73 44 -115 60 -90 35 -171 99 -201 161 -14 30 -21 63 -21
105 l0 61 38 -16 c34 -15 173 -25 352 -26 97 -1 169 50 177 127 15 127 -74
266 -169 266 -32 0 -35 -2 -33 -29 1 -17 15 -45 34 -66 56 -64 66 -125 31
-182 -28 -46 -57 -62 -151 -79 -102 -20 -204 -14 -251 12 -64 37 -106 174 -78
260 36 113 109 216 224 316 91 78 170 121 271 144 123 28 353 41 450 24z
m-2515 -258 c-52 -219 -130 -640 -155 -840 -4 -29 -9 -52 -11 -49 -6 6 25 319
51 507 21 147 33 198 76 323 29 81 53 146 55 144 2 -2 -5 -40 -16 -85z m-651
-37 c7 -27 31 -97 53 -155 28 -75 41 -125 44 -175 l5 -70 -32 75 c-33 79 -99
324 -99 368 0 38 15 16 29 -43z m511 -242 c-10 -16 -11 -15 -6 7 3 14 6 32 7
40 1 8 4 5 6 -7 2 -12 -1 -30 -7 -40z m165 -170 c-9 -87 -19 -240 -22 -341 -6
-178 -5 -183 14 -188 18 -5 21 -17 27 -102 4 -53 12 -125 17 -158 17 -97 62
-153 87 -108 6 11 14 -17 27 -93 22 -135 69 -329 94 -391 11 -27 24 -96 31
-162 20 -207 74 -485 129 -660 11 -35 19 -66 17 -67 -8 -8 -80 170 -141 347
-37 107 -74 210 -81 229 -8 19 -24 112 -34 205 -37 311 -42 351 -47 356 -3 3
-3 -69 0 -160 l6 -165 -29 88 c-16 49 -46 121 -66 160 -32 65 -37 84 -45 192
-5 66 -13 271 -19 455 -5 184 -13 364 -16 400 -5 54 -1 91 27 210 19 80 35
137 37 128 2 -9 -4 -88 -13 -175z m4903 -68 c24 -126 27 -162 27 -350 -1 -217
-12 -320 -45 -405 -10 -25 -21 -70 -25 -100 -9 -69 -53 -209 -115 -365 -26
-66 -67 -176 -90 -245 -41 -116 -171 -387 -277 -574 -41 -72 -103 -210 -103
-229 0 -16 -199 -301 -206 -294 -4 4 47 180 74 257 33 92 57 141 122 250 56
93 334 624 492 940 103 205 101 192 107 810 3 294 7 515 8 490 2 -25 16 -108
31 -185z m-4963 -963 c-2 -2 -26 38 -55 90 l-51 93 6 245 c6 265 10 300 29
300 16 0 30 31 47 105 13 55 15 23 20 -385 4 -245 6 -446 4 -448z m72 726 c-2
-13 -4 -3 -4 22 0 25 2 35 4 23 2 -13 2 -33 0 -45z m2635 -948 c-4 -47 -3 -50
21 -50 18 0 33 12 57 48 18 26 29 38 25 27 -26 -80 -68 -195 -69 -193 -1 2
-27 29 -56 61 -48 52 -52 60 -37 68 9 6 26 28 37 50 11 21 21 39 23 39 1 0 0
-22 -1 -50z m146 -182 c-33 -92 3 -123 50 -43 17 29 22 33 18 15 -4 -14 -9
-44 -12 -67 -4 -24 -10 -43 -13 -43 -4 0 -31 25 -61 55 -30 30 -49 55 -42 55
7 0 27 20 44 45 17 25 33 43 34 42 2 -2 -6 -28 -18 -59z m-23 -217 c-23 -25
-60 -66 -83 -91 -22 -25 -43 -42 -47 -38 -4 3 12 63 36 131 l42 126 47 -41 48
-41 -43 -46z m110 -21 l39 -40 -79 -80 c-43 -44 -81 -78 -83 -75 -5 5 71 234
78 235 3 0 24 -18 45 -40z m105 -151 c0 -9 -101 -102 -105 -97 -3 2 10 44 27
92 l31 88 24 -39 c12 -21 23 -41 23 -44z m67 -118 c5 -18 -4 -33 -46 -75 -29
-28 -50 -44 -47 -36 30 99 50 157 54 164 6 11 31 -22 39 -53z m98 -205 c29
-66 82 -182 119 -257 36 -76 66 -143 66 -150 0 -8 -32 -72 -71 -144 -154 -286
-176 -350 -119 -350 18 0 38 18 82 75 128 166 156 215 49 85 -34 -41 -75 -84
-91 -95 l-29 -21 14 40 c7 22 43 103 80 181 36 78 73 159 81 180 l16 39 53
-57 c45 -49 71 -66 159 -106 129 -57 205 -73 290 -58 33 6 70 14 81 18 13 5 5
-10 -25 -44 -25 -28 -85 -96 -134 -152 -49 -56 -103 -111 -120 -121 -34 -21
-310 -111 -395 -130 -48 -10 -56 -9 -80 8 -14 11 -32 38 -40 59 -39 112 -107
286 -132 336 -16 32 -29 59 -29 62 0 2 10 6 23 10 14 3 41 33 71 78 27 40 45
64 41 53 -54 -148 -66 -190 -63 -228 2 -31 8 -43 21 -45 20 -4 62 38 91 89 18
33 18 33 -28 -11 -45 -43 -46 -44 -46 -18 0 15 20 91 45 170 42 132 49 178 26
164 -5 -4 -35 -42 -65 -86 -86 -122 -84 -111 13 94 34 71 61 136 60 145 0 12
-2 11 -9 -4 -4 -11 -47 -89 -94 -174 -47 -85 -89 -170 -92 -189 l-7 -35 -14
27 c-18 34 -4 82 41 141 21 28 23 34 8 21 l-22 -20 6 75 c4 46 16 95 31 129
73 160 60 175 -38 45 -39 -53 -73 -94 -75 -92 -2 2 17 59 41 128 25 68 43 107
40 87 -3 -21 -2 -38 3 -38 9 0 32 58 67 170 10 30 20 59 23 64 6 11 15 -5 77
-148z m-249 -175 c-31 -72 -56 -133 -56 -137 0 -10 -154 -213 -158 -209 -9 9
51 242 67 260 10 11 44 57 75 102 31 45 71 97 88 115 51 53 46 15 -16 -131z
m104 -5 c-18 -31 -36 -56 -42 -56 -6 0 -2 12 8 28 9 15 27 41 38 59 33 51 30
30 -4 -31z m-515 -153 c-12 -49 -34 -126 -49 -173 -28 -92 -33 -126 -22 -151
14 -31 -158 -34 -276 -4 l-27 7 99 199 c55 109 103 199 106 199 10 0 -8 -83
-52 -233 -42 -144 -46 -177 -19 -177 21 0 50 43 116 173 74 147 131 247 140
247 4 0 -3 -39 -16 -87z m442 25 c-89 -152 -108 -224 -59 -222 18 0 22 -5 22
-33 0 -30 -3 -33 -29 -33 -15 0 -82 -11 -147 -24 -66 -13 -144 -27 -174 -31
-30 -3 -64 -9 -75 -12 -17 -5 -16 -2 7 23 29 32 102 148 167 267 24 43 45 77
46 75 2 -2 -9 -55 -26 -117 -34 -131 -35 -156 -12 -170 28 -15 46 2 130 117
88 122 154 202 166 202 5 0 -2 -19 -16 -42z m-841 -189 c-54 -135 -69 -165
-87 -167 -11 -2 -19 0 -17 5 2 4 40 81 83 170 44 89 81 161 82 159 2 -2 -26
-77 -61 -167z m833 62 c-7 -23 -16 -41 -22 -41 -5 0 -6 8 -2 18 4 9 12 30 17
45 16 42 21 25 7 -22z m76 -315 c34 -83 72 -182 85 -221 12 -38 30 -79 39 -89
16 -18 14 -19 -59 -13 -80 7 -142 23 -330 89 -162 56 -240 97 -363 189 -59 44
-107 82 -107 85 0 3 9 3 20 -1 30 -10 378 43 509 76 103 27 159 49 122 49 -7
0 -9 5 -5 11 9 16 15 4 89 -175z m-1705 167 c0 -3 -7 -14 -15 -24 -9 -9 -41
-61 -71 -115 -31 -55 -53 -90 -51 -79 26 102 12 114 -33 28 -17 -32 -27 -47
-24 -33 40 146 43 170 19 170 -8 0 -26 -21 -39 -47 -29 -56 -33 -50 -9 17 17
47 18 48 68 55 28 3 71 12 96 20 52 16 59 17 59 8z m2613 -195 c-27 -121 -102
-241 -181 -292 -77 -51 -346 -84 -431 -55 -36 13 -56 5 259 104 108 33 164 69
220 142 39 51 139 163 145 163 1 0 -4 -28 -12 -62z m-2663 -42 c-15 -64 -17
-92 -10 -107 10 -17 7 -19 -25 -19 -19 0 -35 2 -35 5 0 12 83 216 86 212 3 -2
-5 -43 -16 -91z m-115 -16 c-14 -40 -25 -82 -25 -92 0 -10 -7 -18 -15 -18 -20
0 -20 1 22 109 42 110 55 111 18 1z m-80 -25 c-15 -41 -31 -72 -36 -69 -5 3
-2 22 7 42 9 20 23 54 32 75 27 67 26 29 -3 -48z m579 -66 c-37 -67 -138 -160
-216 -198 -155 -75 -344 -105 -418 -67 -78 41 -119 99 -145 208 -24 101 -23
101 41 63 31 -19 71 -39 89 -45 25 -8 32 -15 28 -29 -7 -28 17 -37 36 -14 14
18 28 21 112 22 117 0 265 29 391 75 51 19 97 35 101 35 5 1 -4 -22 -19 -50z"/>
<path d="M1764 9109 c-6 -8 -26 -61 -44 -119 -17 -58 -44 -129 -60 -157 -30
-56 -27 -68 7 -30 32 34 61 98 89 196 26 93 30 137 8 110z"/>
<path d="M1567 8818 c-9 -12 -33 -68 -55 -123 -22 -55 -58 -139 -80 -187 -23
-49 -37 -88 -31 -88 33 0 132 197 169 339 21 80 20 96 -3 59z"/>
<path d="M5881 8667 c-1 -12 38 -237 45 -260 14 -46 13 0 -1 93 -14 87 -42
193 -44 167z"/>
<path d="M3670 8595 c0 -2 18 -49 39 -102 62 -157 71 -197 82 -373 10 -168 45
-500 54 -508 8 -9 5 106 -6 228 -5 63 -16 203 -24 310 -8 107 -19 213 -25 235
-15 52 -99 215 -111 215 -5 0 -9 -2 -9 -5z"/>
<path d="M3009 8490 c-87 -8 -170 -27 -214 -47 -25 -12 -26 -13 -5 -8 118 28
169 35 260 35 119 0 209 -13 287 -40 62 -22 68 -18 15 9 -89 45 -209 63 -343
51z"/>
<path d="M5985 8465 c2 -16 7 -56 10 -87 4 -32 10 -60 14 -62 10 -6 -8 145
-20 164 -6 10 -7 6 -4 -15z"/>
<path d="M1316 8388 c-32 -84 -106 -331 -102 -336 7 -7 44 57 65 113 22 59 66
254 58 261 -3 3 -12 -14 -21 -38z"/>
<path d="M4199 8401 c-62 -24 -130 -72 -173 -123 -54 -63 -43 -64 16 -2 36 39
77 68 141 99 91 46 99 58 16 26z"/>
<path d="M6175 8409 c-20 -57 -48 -240 -29 -194 9 22 43 199 39 204 -3 2 -7
-2 -10 -10z"/>
<path d="M6147 8143 c-21 -82 -21 -97 -1 -60 14 26 32 127 23 127 -3 0 -12
-30 -22 -67z"/>
<path d="M2445 8143 c-51 -52 -83 -93 -72 -93 3 0 35 34 72 75 37 41 65 75 62
75 -2 0 -30 -26 -62 -57z"/>
<path d="M5856 8190 c4 -8 36 -56 71 -107 135 -195 226 -464 239 -703 l4 -85
-38 135 c-20 74 -38 125 -40 113 -2 -12 17 -129 42 -260 25 -131 50 -270 57
-310 7 -40 16 -70 21 -67 13 8 9 111 -8 214 -9 52 -18 158 -19 235 -3 256 -73
482 -215 693 -54 80 -132 177 -114 142z"/>
<path d="M6215 8124 c-5 -40 -3 -74 3 -87 8 -17 11 -3 11 66 1 48 -1 87 -3 87
-3 0 -8 -30 -11 -66z"/>
<path d="M3525 8159 c18 -58 34 -93 34 -79 1 25 -19 89 -30 96 -8 4 -9 -1 -4
-17z"/>
<path d="M3330 8137 c84 -19 146 -54 205 -114 35 -36 52 -48 48 -35 -16 63
-161 152 -257 159 l-51 3 55 -13z"/>
<path d="M1804 8092 c-147 -107 -345 -408 -503 -764 -74 -167 -82 -188 -77
-188 3 0 45 78 94 173 206 396 329 593 453 722 45 47 80 85 77 85 -3 0 -23
-13 -44 -28z"/>
<path d="M6280 8025 c-5 -33 1 -89 11 -105 11 -19 10 52 -1 95 -6 23 -8 25
-10 10z"/>
<path d="M4247 7935 c16 -176 124 -351 255 -413 75 -35 96 -34 31 1 -161 89
-229 192 -282 427 -9 43 -9 43 -4 -15z"/>
<path d="M5133 7927 c-7 -34 -30 -98 -53 -142 -46 -93 -49 -108 -18 -96 16 6
29 29 49 87 15 43 34 96 43 117 10 22 12 37 6 37 -6 0 -8 10 -4 24 3 13 2 26
-3 29 -5 3 -14 -22 -20 -56z"/>
<path d="M2939 7942 c13 -9 43 -28 65 -41 41 -24 41 -24 21 -2 -19 22 -86 62
-102 60 -4 0 3 -8 16 -17z"/>
<path d="M4698 7900 c-4 -30 -12 -107 -18 -170 -5 -63 -13 -132 -16 -152 -7
-41 9 -54 20 -15 12 47 27 236 24 312 l-3 80 -7 -55z"/>
<path d="M4768 7892 c2 -26 -8 -112 -22 -192 -25 -141 -26 -164 -6 -144 22 22
52 366 33 377 -5 3 -7 -16 -5 -41z"/>
<path d="M4872 7915 c-3 -40 -47 -210 -72 -277 -25 -66 -27 -89 -6 -68 30 30
91 279 83 340 -4 33 -4 33 -5 5z"/>
<path d="M4525 7910 c3 -14 15 -94 26 -179 18 -142 33 -201 46 -188 8 9 -48
329 -63 362 -12 26 -13 26 -9 5z"/>
<path d="M1792 7856 c-56 -68 -94 -132 -208 -352 -91 -176 -123 -228 -88 -146
37 87 84 215 83 226 0 16 -103 -189 -167 -334 -130 -297 -223 -558 -267 -745
-23 -99 -39 -203 -31 -194 3 3 25 74 50 159 46 158 119 372 176 515 76 193
122 295 131 290 11 -7 35 32 164 270 104 192 129 235 183 318 37 56 23 52 -26
-7z"/>
<path d="M3182 7870 c38 -65 66 -169 82 -300 13 -111 20 -100 16 24 -4 102
-63 271 -108 309 -9 6 -4 -8 10 -33z"/>
<path d="M2750 7893 c-47 -8 -102 -24 -98 -29 6 -5 137 21 145 30 7 6 -6 6
-47 -1z"/>
<path d="M4928 7895 c-10 -16 -78 -279 -78 -303 0 -56 20 -10 54 123 33 128
44 210 24 180z"/>
<path d="M6327 7883 c-12 -11 -7 -77 8 -108 13 -28 14 -25 8 40 -6 77 -7 78
-16 68z"/>
<path d="M5202 7799 c-30 -61 -39 -72 -84 -95 -58 -29 -133 -96 -154 -136 -21
-40 -11 -35 21 12 27 39 143 126 153 115 3 -3 0 -11 -6 -17 -7 -7 -12 -17 -12
-22 1 -6 15 5 33 26 19 22 45 39 66 43 27 6 32 4 26 -6 -5 -9 -1 -7 11 3 10 9
44 20 74 26 l55 10 -48 1 -49 1 20 33 c38 62 34 81 -5 22 -31 -47 -48 -63 -76
-72 -21 -6 -37 -10 -37 -8 0 2 9 19 20 38 23 39 42 97 32 96 -4 0 -22 -31 -40
-70z"/>
<path d="M2615 7765 c-32 -13 -75 -41 -95 -61 l-35 -37 41 32 c23 18 74 45
115 61 41 16 65 29 54 29 -11 0 -47 -10 -80 -24z"/>
<path d="M6380 7754 c0 -35 38 -169 47 -161 6 6 -26 156 -38 177 -6 11 -8 6
-9 -16z"/>
<path d="M3365 7631 c3 -18 5 -95 6 -170 1 -112 3 -128 11 -91 11 56 4 236
-11 270 -11 24 -11 23 -6 -9z"/>
<path d="M3655 7623 c-21 -123 -79 -288 -142 -403 -28 -52 -31 -61 -13 -45 53
48 154 308 167 433 7 60 -3 71 -12 15z"/>
<path d="M2565 7551 c-22 -6 -6 -9 61 -10 147 -2 249 -45 314 -134 32 -44 39
-43 15 2 -22 43 -92 98 -153 121 -60 23 -189 34 -237 21z"/>
<path d="M5135 7546 c-16 -7 -38 -23 -48 -34 -17 -19 -87 -210 -87 -237 0 -7
41 -24 90 -39 74 -23 104 -27 168 -24 78 4 116 18 252 92 25 13 67 29 94 35
45 11 125 57 126 73 0 4 -24 -4 -52 -17 -104 -49 -108 -48 -201 42 -63 62 -95
85 -140 101 -66 25 -156 28 -202 8z m183 -36 c72 -25 122 -75 122 -122 0 -50
-30 -100 -75 -125 -57 -32 -199 -33 -239 -2 -59 47 -72 125 -33 200 37 69 116
87 225 49z m195 -170 c-5 -4 -25 -17 -45 -29 l-38 -22 15 35 c8 19 15 45 15
58 0 21 1 21 30 -7 17 -16 27 -32 23 -35z m-444 -42 l22 -37 -33 11 c-42 14
-41 11 -27 42 7 14 13 25 14 24 1 -2 12 -20 24 -40z"/>
<path d="M5169 7467 c-68 -45 -61 -132 12 -161 47 -19 73 -20 102 -4 34 18 46
40 47 82 0 30 -7 45 -34 72 -41 41 -78 44 -127 11z m115 -28 c48 -57 25 -129
-42 -129 -74 0 -121 56 -91 109 32 56 95 66 133 20z"/>
<path d="M5193 7429 c-17 -17 -4 -39 23 -39 26 0 32 18 12 38 -15 15 -21 15
-35 1z"/>
<path d="M2508 7533 c7 -3 16 -2 19 1 4 3 -2 6 -13 5 -11 0 -14 -3 -6 -6z"/>
<path d="M4484 7445 c6 -75 60 -285 87 -342 11 -22 27 -44 36 -47 19 -8 32 2
17 12 -27 17 -76 155 -120 337 -23 93 -24 96 -20 40z"/>
<path d="M951 7407 c-12 -49 -13 -157 -2 -197 12 -45 24 -2 29 105 5 119 -8
165 -27 92z"/>
<path d="M2580 7403 c-52 -26 -99 -62 -152 -114 -103 -101 -101 -99 -161 -119
l-52 -18 56 -7 c66 -8 66 -9 104 -59 34 -44 93 -75 145 -76 19 0 98 18 174 40
76 22 153 40 170 40 18 0 40 6 50 13 18 13 18 16 1 68 -36 111 -104 217 -154
243 -63 33 -100 31 -181 -11z m155 -7 c44 -19 56 -44 58 -119 1 -50 -3 -70
-22 -102 -49 -81 -78 -101 -190 -130 -48 -13 -58 -13 -88 2 -57 27 -85 111
-63 192 12 46 47 76 158 138 64 35 97 39 147 19z m140 -195 c15 -35 24 -69 21
-76 -2 -7 -31 -15 -63 -18 -33 -4 -67 -9 -77 -13 -12 -5 -8 6 14 40 40 58 52
100 45 151 l-6 40 20 -30 c12 -16 32 -59 46 -94z m-450 -117 c27 -41 -1 -26
-30 17 -16 22 -37 45 -47 50 -16 9 -15 12 15 39 l32 29 7 -56 c4 -31 15 -67
23 -79z"/>
<path d="M2559 7301 c-38 -39 -39 -87 -3 -130 54 -65 154 -20 154 69 0 85 -90
122 -151 61z m106 -1 c3 -5 2 -10 -3 -10 -23 0 -21 -31 3 -42 31 -14 32 -35 3
-65 -37 -40 -96 -27 -117 26 -10 24 -10 34 3 59 9 17 21 32 28 35 23 9 77 7
83 -3z"/>
<path d="M3491 7348 c-12 -46 -38 -123 -57 -173 -19 -49 -36 -97 -37 -105 -1
-8 -36 -33 -77 -55 -41 -22 -109 -63 -150 -92 -85 -59 -270 -219 -270 -234 0
-5 50 33 110 85 181 154 321 243 468 296 80 29 75 36 -7 9 -34 -12 -64 -20
-66 -17 -2 2 9 30 25 63 47 99 106 305 87 305 -2 0 -14 -37 -26 -82z"/>
<path d="M4594 7335 c21 -117 101 -282 167 -344 52 -48 70 -65 132 -133 62
-67 96 -79 45 -15 -82 101 -155 225 -193 332 -26 72 -39 80 -31 20 3 -28 25
-88 50 -137 24 -49 42 -88 40 -88 -2 0 -21 26 -43 58 -50 75 -108 189 -136
269 -27 77 -40 93 -31 38z"/>
<path d="M4360 7312 c0 -64 179 -267 311 -351 35 -23 92 -67 127 -98 69 -63
141 -116 187 -140 39 -20 29 -11 -80 75 -49 39 -118 100 -153 137 -35 37 -58
57 -52 45 l12 -22 -33 18 c-55 31 -253 234 -287 294 -18 30 -32 49 -32 42z"/>
<path d="M4850 7143 c0 -55 103 -274 156 -333 57 -62 58 -47 4 33 -27 39 -72
124 -100 187 -54 118 -60 131 -60 113z"/>
<path d="M1382 7032 c-132 -277 -236 -734 -191 -837 l13 -30 3 30 c32 301 71
476 163 730 91 249 94 280 12 107z"/>
<path d="M2977 6957 c-25 -50 -68 -118 -94 -151 -73 -89 -81 -107 -21 -46 68
71 125 157 150 227 10 30 17 57 15 59 -2 2 -24 -38 -50 -89z"/>
<path d="M1952 6998 c-40 -59 -118 -215 -131 -265 -6 -22 -8 -48 -5 -57 10
-25 34 -19 34 9 0 30 34 119 94 249 26 54 45 101 42 103 -2 2 -17 -15 -34 -39z"/>
<path d="M5517 6988 c15 -28 34 -53 41 -56 6 -2 -3 21 -20 52 -42 70 -59 74
-21 4z"/>
<path d="M5390 7022 c0 -19 36 -86 55 -102 30 -25 24 -4 -15 55 -22 33 -40 54
-40 47z"/>
<path d="M4970 7012 c0 -23 66 -157 108 -219 42 -62 94 -113 116 -113 7 0 33
-29 59 -64 45 -60 93 -112 72 -76 -19 32 -155 209 -167 216 -6 4 -1 -8 12 -27
l24 -34 -28 25 c-37 33 -79 95 -143 210 -29 52 -53 89 -53 82z"/>
<path d="M5620 6990 c6 -11 20 -25 33 -31 18 -10 17 -6 -7 20 -34 36 -41 39
-26 11z"/>
<path d="M5857 6939 c-3 -35 -28 -143 -56 -239 -60 -211 -101 -374 -100 -392
2 -20 34 85 100 322 65 235 84 332 71 356 -6 11 -11 -4 -15 -47z"/>
<path d="M5288 6947 c20 -24 103 -77 121 -77 9 0 -3 11 -27 25 -24 14 -58 35
-75 47 -21 15 -27 16 -19 5z"/>
<path d="M1988 6863 c-28 -53 -83 -207 -93 -264 -5 -26 -2 -39 10 -49 15 -12
19 -11 37 10 16 20 19 21 13 5 -16 -50 -17 -101 -2 -114 27 -22 54 4 96 92 22
45 40 78 41 73 0 -5 -13 -51 -30 -103 -33 -103 -37 -145 -16 -162 21 -17 51
16 87 95 16 35 31 64 32 64 2 0 -7 -39 -19 -87 -33 -129 -30 -179 12 -171 18
3 70 93 94 163 12 35 7 29 -44 -48 -21 -32 -40 -56 -42 -55 -1 2 9 64 22 138
13 74 23 149 22 165 -3 26 -10 18 -57 -73 -30 -56 -60 -107 -67 -113 -7 -6 0
49 21 148 30 140 34 177 21 162 -2 -2 -26 -44 -54 -94 -28 -49 -58 -99 -66
-110 -15 -20 -15 -20 -16 0 0 11 14 76 30 143 17 68 30 129 30 135 -1 27 -31
-31 -56 -107 -27 -83 -64 -142 -64 -101 0 11 22 84 49 163 27 78 46 142 42
142 -5 0 -19 -21 -33 -47z"/>
<path d="M4790 6586 c0 -18 51 -115 94 -181 30 -44 70 -106 89 -137 24 -38 55
-70 96 -97 113 -77 156 -157 198 -371 37 -188 43 -201 37 -75 -12 250 -77 397
-214 485 -34 22 -64 54 -96 103 -26 40 -69 98 -96 131 -27 32 -60 78 -74 102
-23 39 -34 52 -34 40z"/>
<path d="M2320 6554 c0 -16 -18 -94 -40 -173 -75 -273 -95 -404 -70 -452 20
-36 30 -19 30 54 0 44 14 138 36 242 52 248 65 338 54 349 -7 7 -10 0 -10 -20z"/>
<path d="M2630 6503 c-77 -86 -141 -186 -190 -298 -110 -252 -129 -366 -114
-682 7 -146 6 -234 -3 -329 -14 -148 -16 -380 -4 -439 6 -28 9 -32 10 -15 1
14 9 126 18 250 12 160 16 308 14 515 -2 234 0 308 13 385 17 94 76 261 138
385 38 75 132 221 166 258 14 15 21 27 15 27 -6 0 -35 -26 -63 -57z"/>
<path d="M3030 6314 c-152 -234 -244 -496 -256 -724 l-4 -95 43 175 c60 244
108 379 204 570 45 90 81 166 79 168 -2 1 -32 -41 -66 -94z"/>
<path d="M2368 6284 c-14 -117 -19 -261 -8 -234 14 35 26 185 20 245 l-5 50
-7 -61z"/>
<path d="M2199 4897 c-21 -67 -53 -174 -74 -237 -74 -233 -114 -430 -88 -430
11 0 34 73 63 204 11 48 47 181 80 295 32 114 62 226 66 249 13 82 -11 40 -47
-81z"/>
<path d="M5050 4966 c0 -23 80 -134 137 -191 74 -74 160 -120 241 -130 57 -7
74 8 20 19 -55 11 -176 75 -235 125 -32 26 -78 74 -102 107 -57 75 -61 80 -61
70z"/>
<path d="M2196 4709 c-32 -107 -70 -292 -90 -437 -17 -120 -20 -314 -6 -347 5
-11 9 -15 9 -9 13 190 42 418 87 667 19 110 33 201 30 204 -2 3 -16 -33 -30
-78z"/>
<path d="M2266 4655 c-4 -22 -26 -114 -48 -205 -56 -233 -69 -315 -57 -347 6
-16 6 -53 -1 -104 -9 -77 -6 -109 10 -109 10 0 15 21 35 155 27 172 33 206 59
348 30 161 32 192 6 122 -23 -63 -24 -53 -4 52 8 46 14 94 12 106 -3 16 -6 11
-12 -18z"/>
<path d="M5100 4490 c0 -5 17 -30 39 -57 84 -106 213 -195 302 -209 l44 -7
-70 38 c-93 50 -176 110 -252 183 -35 33 -63 56 -63 52z"/>
<path d="M2341 4390 c-1 -30 -6 -82 -11 -115 -5 -33 -16 -105 -25 -160 -21
-136 -23 -356 -2 -415 l15 -45 1 127 c1 70 7 205 15 300 22 259 24 311 16 338
-6 19 -8 12 -9 -30z"/>
<path d="M2266 4303 c-27 -131 -56 -352 -56 -435 0 -26 5 -59 12 -75 10 -24
13 -8 24 127 7 85 20 198 28 250 17 106 31 260 24 260 -2 0 -17 -57 -32 -127z"/>
<path d="M2633 4294 c-18 -35 -27 -61 -21 -58 8 5 9 1 4 -12 -50 -124 -117
-379 -117 -452 -1 -76 31 -90 63 -28 9 17 8 19 -3 9 -7 -7 -16 -13 -19 -13
-18 0 26 224 94 485 19 72 33 131 32 132 -1 1 -16 -27 -33 -63z"/>
<path d="M2690 4115 c-28 -72 -64 -192 -106 -355 -48 -191 -64 -302 -45 -315
7 -4 14 -5 16 -4 2 2 11 49 20 104 9 55 44 207 77 338 54 215 70 311 38 232z"/>
<path d="M2716 4028 c-69 -193 -137 -511 -122 -572 10 -39 36 -33 36 8 0 59
40 274 75 402 36 130 60 252 52 260 -2 3 -21 -41 -41 -98z"/>
<path d="M3580 4024 c0 -8 119 -63 181 -84 135 -46 433 -36 590 19 113 40 162
61 156 67 -2 3 -61 -13 -130 -36 -138 -45 -238 -60 -392 -60 -121 0 -207 17
-320 64 -47 19 -85 32 -85 30z"/>
<path d="M2758 3789 c-87 -264 -109 -359 -92 -403 14 -37 31 -15 37 47 3 34
22 118 43 187 61 207 75 263 72 304 -3 34 -11 15 -60 -135z"/>
<path d="M3611 3854 c-68 -24 -128 -50 -135 -57 -173 -215 -455 -649 -496
-764 l-10 -28 23 26 c13 15 84 123 157 240 73 118 171 270 218 339 47 69 97
141 110 161 19 29 33 38 65 43 45 7 161 51 192 72 29 21 12 16 -124 -32z"/>
<path d="M4963 3138 c-65 -155 -81 -213 -67 -236 16 -25 37 -26 65 -2 l24 20
-27 -6 c-25 -5 -28 -3 -28 19 0 14 20 90 45 168 25 79 44 147 42 152 -1 5 -26
-47 -54 -115z"/>
<path d="M5976 9259 c-11 -57 -14 -97 -6 -109 5 -8 11 13 15 54 7 65 1 103 -9
55z"/>
<path d="M6546 7515 c9 -41 44 -115 54 -115 4 0 -4 28 -17 63 -29 71 -48 99
-37 52z"/>
<path d="M6627 7397 c-8 -63 -5 -88 8 -75 3 3 5 37 3 74 l-3 69 -8 -68z"/>
<path d="M6678 7311 c-5 -18 -7 -68 -7 -110 l2 -76 9 75 c4 41 7 91 6 110 l-3
35 -7 -34z"/>
<path d="M6699 7100 c-3 -14 -6 -54 -7 -90 -1 -53 0 -60 9 -41 5 14 9 54 7 90
-2 40 -5 56 -9 41z"/>
</g>
</svg>
